<svg width="29" height="28" viewBox="0 0 29 28" fill="none" xmlns="http://www.w3.org/2000/svg">
<path d="M14.7089 2.36334C8.2856 2.36334 3.07251 7.57643 3.07251 13.9997C3.07251 20.423 8.2856 25.6361 14.7089 25.6361C21.1321 25.6361 26.3452 20.423 26.3452 13.9997C26.3452 7.57643 21.1321 2.36334 14.7089 2.36334ZM19.9452 16.6179H16.3962L18.7118 19.8994C18.9911 20.295 18.898 20.8419 18.5023 21.1095C18.3511 21.2143 18.1765 21.2724 18.0019 21.2724C17.7227 21.2724 17.4551 21.1444 17.2921 20.9001L14.6158 17.1066L11.9394 20.9001C11.7649 21.1444 11.4972 21.2724 11.2296 21.2724C11.0551 21.2724 10.8805 21.2259 10.7292 21.1095C10.3336 20.8303 10.2405 20.2834 10.5198 19.8994L12.8354 16.6179H9.49577C9.01868 16.6179 8.62304 16.2223 8.62304 15.7452C8.62304 15.2681 9.01868 14.8724 9.49577 14.8724H19.9685C20.4456 14.8724 20.8412 15.2681 20.8412 15.7452C20.8412 16.2223 20.4223 16.6179 19.9452 16.6179ZM19.9452 13.127H9.47251C8.99542 13.127 8.59978 12.7313 8.59978 12.2543C8.59978 11.7772 8.99542 11.3815 9.47251 11.3815H12.8121L10.4965 8.10006C10.2172 7.70442 10.3103 7.15752 10.706 6.88989C11.1016 6.61061 11.6485 6.70371 11.9162 7.09935L14.5925 10.8928L17.2689 7.09935C17.5482 6.70371 18.095 6.61061 18.479 6.88989C18.8747 7.16916 18.9678 7.71606 18.6885 8.10006L16.3729 11.3815H19.922C20.3991 11.3815 20.7947 11.7772 20.7947 12.2543C20.7947 12.7313 20.4223 13.127 19.9452 13.127Z" fill="#647B64"/>
</svg>
