<svg width="178" height="304" viewBox="0 0 178 304" fill="none" xmlns="http://www.w3.org/2000/svg">
<path d="M35.7594 288.027C40.8792 287.003 46.5842 288.027 83.0082 288.027C119.432 288.027 140.35 286.857 150.444 285.248C160.537 283.639 183.064 287.442 176.921 292.855C170.777 298.267 110.655 306.02 100.416 301.632C90.176 297.243 10.3065 306.605 16.7429 295.927C21.8919 287.384 31.566 287.101 35.7594 288.027Z" fill="black" fill-opacity="0.13"/>
<g clip-path="url(#clip0_1_377)">
<path d="M66.9678 75.103C66.231 75.5194 65.4776 75.5721 65.2781 75.2226L63.0969 71.3755C62.8974 71.026 63.3334 70.4059 64.0676 69.9882C64.8044 69.5718 65.5617 69.5177 65.7587 69.8659L67.9398 73.713C68.1394 74.0625 67.702 74.6853 66.9678 75.103Z" fill="#2B242A"/>
<path d="M64.2121 69.2834C64.2121 69.2834 63.2686 70.3905 64.7399 72.9844C66.2111 75.5783 67.6477 75.3371 67.6477 75.3371C67.6477 75.3371 84.4371 64.9481 86.6672 63.6857C88.8973 62.4232 86.8116 57.6675 84.1213 59.1956C81.4309 60.7236 64.2121 69.2834 64.2121 69.2834Z" fill="#BC7BFB"/>
<g style="mix-blend-mode:soft-light">
<path d="M67.4029 74.7828C70.3064 72.9879 83.8901 64.597 85.8788 63.4669L85.9205 63.4418C83.815 62.2476 67.1869 74.2947 67.4029 74.7828Z" fill="white"/>
</g>
<g style="mix-blend-mode:multiply">
<path d="M67.5986 74.3049C67.277 73.2169 67.2142 72.0868 67.7105 71.0333C68.3386 69.6924 69.4382 68.6524 70.5554 67.7092C73.1998 65.4801 76.0005 63.5628 79.416 62.7671C81.9313 62.1834 84.6982 62.1085 86.9722 63.464C88.6931 61.9572 86.6748 57.7467 84.1213 59.1954C81.4335 60.7183 64.2135 69.2806 64.2135 69.2806C64.2135 69.2806 63.27 70.3877 64.7412 72.9816C66.2125 75.5755 67.649 75.3343 67.649 75.3343L67.9267 75.1613C67.7965 74.8843 67.6869 74.598 67.5986 74.3049Z" fill="#BC7BFB"/>
</g>
<g style="mix-blend-mode:soft-light">
<g style="mix-blend-mode:soft-light">
<path d="M68.9404 74.5395L64.0735 71.4432C64.1698 71.7774 64.2942 72.1027 64.4455 72.4158L68.3511 74.9015C68.5141 74.8089 68.7174 74.6743 68.9404 74.5395Z" fill="white"/>
</g>
<g style="mix-blend-mode:soft-light">
<path d="M71.3753 73.0349L64.9194 68.9273L64.2671 69.2581L70.7834 73.4021C70.9776 73.2793 71.1745 73.1578 71.3753 73.0349Z" fill="white"/>
</g>
<g style="mix-blend-mode:soft-light">
<path d="M74.6096 71.0378L68.4926 67.1493C68.2695 67.2579 68.0582 67.369 67.8403 67.4802L74.019 71.4089L74.6096 71.0378Z" fill="white"/>
</g>
<g style="mix-blend-mode:soft-light">
<path d="M77.8477 69.0466L72.0459 65.3591L71.3962 65.6912L77.244 69.4112L77.8477 69.0466Z" fill="white"/>
</g>
<g style="mix-blend-mode:soft-light">
<path d="M81.0914 67.0569L75.6297 63.5794L74.98 63.9116L80.4929 67.4111L81.0914 67.0569Z" fill="white"/>
</g>
<g style="mix-blend-mode:soft-light">
<path d="M84.3435 65.0716L79.1576 61.7887C78.9463 61.8933 78.7271 62.0005 78.5106 62.1221L83.7516 65.4322L84.3435 65.0716Z" fill="white"/>
</g>
<g style="mix-blend-mode:soft-light">
<path d="M86.3129 62.2718L82.6845 59.9651L82.0453 60.3024L86.9633 63.4272L86.3129 62.2718Z" fill="white"/>
</g>
</g>
<path d="M89.6392 61.7124C92.1249 60.3019 112.339 60.5566 117.841 60.7406C116.768 59.2788 105.319 55.5154 105.319 55.5154C105.319 55.5154 107.531 57.7308 104.181 57.8901C99.5871 58.1117 94.2389 58.2093 93.1714 58.2312C91.4746 58.2593 91.3098 57.3758 92.0387 56.2608C92.4809 55.5818 95.3368 50.9976 98.0421 47.0633C99.3993 45.0902 100.69 47.3895 100.69 47.3895C100.69 47.3895 105.01 31.3876 102.608 33.8796C99.8414 39.6526 89.9793 56.0319 87.2823 57.5535C84.5853 59.0751 87.1522 63.1189 89.6392 61.7124Z" fill="#352E35"/>
<path d="M115.376 23.6423C126.213 17.4955 138.982 19.5413 143.902 28.215C148.563 36.4349 144.483 47.6662 134.818 54.0351C135.223 54.5967 135.684 55.1436 136.03 55.7382C146.829 48.6235 151.37 36.0994 146.171 26.9262C140.687 17.2535 126.439 14.9651 114.347 21.8243C112.922 22.63 111.563 23.547 110.282 24.5667C110.694 25.1345 111.137 25.6793 111.608 26.1984C112.793 25.2457 114.053 24.3909 115.376 23.6423Z" fill="#BC7BFB"/>
<path d="M145.792 36.7886L145.31 37.0596L144.206 35.1361L145.762 34.2426C145.751 34.1066 145.736 33.9719 145.72 33.8373L144.026 34.7996L142.929 32.876L144.863 31.7776L145.617 33.1012C145.549 32.7026 145.468 32.3105 145.372 31.9172L145.201 31.6016L145.287 31.5527C145.254 31.4286 145.219 31.3071 145.186 31.1765L145.023 31.269L143.924 29.335L144.373 29.0864L144.21 28.755L143.753 29.0193L142.656 27.0827L143.046 26.8606L142.826 26.5597L142.473 26.7606L141.485 25.051C141.201 24.7674 140.905 24.4944 140.586 24.2293L140.829 24.6754L138.892 25.7725L137.811 23.8306L139.091 23.1049C138.976 23.0283 138.858 22.9505 138.739 22.8792L137.63 23.5098L136.644 21.7714C136.418 21.6602 136.181 21.5726 135.946 21.4797L134.094 22.5241L132.995 20.5901L132.445 20.4755L130.549 21.5567L129.748 20.1444L129.307 20.1194L130.233 21.7273L128.297 22.8245L127.2 20.8879L128.598 20.0961C128.345 20.0923 128.094 20.0924 127.84 20.0978L127.003 20.5724L126.76 20.1459L126.353 20.1771L126.681 20.7561L124.744 21.8533L123.972 20.4944L123.588 20.566L124.421 22.0396L122.496 23.1328L121.399 21.1962L121.752 20.9953C121.205 21.1463 120.656 21.313 120.114 21.4928L118.96 22.1471L118.857 21.992L118.505 22.1445L118.634 22.3714L116.699 23.4398L116.477 23.0499C116.365 23.1055 116.256 23.1606 116.151 23.2153L116.377 23.617L114.445 24.7102L114.225 24.3242L113.912 24.5223L114.121 24.8927L112.187 25.9911L112.076 25.8256C111.975 25.9034 111.876 25.9785 111.779 26.0576L111.85 26.1841L111.108 26.6045C110.654 26.9918 110.217 27.3916 109.796 27.804L110.884 29.7263L108.947 30.8235L108.194 29.4933C108.107 29.5906 108.021 29.6918 107.939 29.7917L108.627 31.0046L106.698 32.1056L106.477 31.7196C106.401 31.8352 106.321 31.9495 106.245 32.0651L106.373 32.2881L105.947 32.5313C105.812 32.7453 105.682 32.962 105.555 33.1799L106.557 32.6102L107.654 34.5468L105.707 35.6388L104.938 34.2812C104.872 34.415 104.808 34.5436 104.74 34.6827L105.387 35.8238L103.894 36.6698C103.794 36.9465 103.698 37.2257 103.606 37.5063L104.601 39.259L102.959 40.1883C102.934 40.3454 102.914 40.4921 102.889 40.6558L104.782 39.5798L105.882 41.5177L103.946 42.6149L102.877 40.7318C102.85 40.94 102.825 41.1494 102.81 41.351L103.625 42.7895L102.724 43.2945C102.727 43.4332 102.73 43.5718 102.736 43.7118L103.801 43.1077L104.898 45.0443L103.025 46.1045C103.141 46.6738 103.29 47.2361 103.47 47.7885L103.92 48.584L103.786 48.658L103.938 49.0104L104.114 48.9113L105.211 50.8479L104.969 50.9827C105.033 51.0897 105.099 51.194 105.169 51.2969L105.395 51.17L106.347 52.8523C106.675 53.2292 107.023 53.5888 107.388 53.9297L106.998 53.245L108.935 52.1478L110.029 54.0832L108.553 54.9212C108.658 55.0057 108.766 55.0849 108.876 55.1653L110.226 54.4117L111.323 56.3484L111.06 56.4991L111.461 56.6969L111.507 56.6705L111.545 56.7383C111.734 56.8314 111.923 56.9245 112.121 56.9993L111.829 56.4868L113.766 55.3896L114.863 57.3262L114.148 57.7307C114.316 57.7808 114.481 57.8295 114.649 57.873L115.047 57.6483L115.263 58.0291L115.751 58.1388L115.354 57.4477L117.097 56.4602L118.194 58.3968L118.062 58.4722C118.281 58.4918 118.499 58.5115 118.72 58.5259L120.632 57.4394L121.262 58.5518L121.677 58.5285L120.951 57.2701L122.887 56.1729L123.875 57.9152L122.971 58.4255C123.312 58.3947 123.627 58.3445 123.959 58.2928L124.054 58.2386L124.076 58.2752L124.464 58.2088L124.377 58.0549L126.313 56.9577L126.736 57.7011L127.111 57.6021L126.643 56.7779L128.58 55.6807L129.263 56.8883L129.613 56.7542L128.902 55.497L130.839 54.3998L131.659 55.8513L131.991 55.6885L131.158 54.2213L133.095 53.1242L133.933 54.607L134.25 54.4141L133.415 52.943L135.352 51.8459L136.094 53.1539C136.195 53.08 136.294 53.0049 136.393 52.9297L135.674 51.6621L137.611 50.565L138.14 51.4778C138.235 51.3909 138.326 51.3053 138.419 51.221L137.939 50.3747L139.876 49.2775L140.054 49.5774C140.144 49.4814 140.229 49.3827 140.316 49.2854L140.211 49.1002L140.717 48.8147C140.929 48.557 141.138 48.298 141.34 48.0352L140.028 48.7781L139.04 47.0358L140.956 45.9283L141.786 47.3941C141.866 47.2837 141.946 47.1695 142.023 47.0578L141.278 45.7445L143.215 44.6474L143.356 44.8965C143.421 44.7652 143.485 44.634 143.55 44.5028L143.526 44.4585L143.593 44.4228C143.691 44.2233 143.788 44.0265 143.885 43.8297L143.342 44.1364L142.245 42.1997L144.182 41.1026L144.668 41.962C144.725 41.8073 144.779 41.6512 144.829 41.4966L144.504 40.9188L145.12 40.5698C145.166 40.4034 145.21 40.2331 145.253 40.068L144.324 40.5888L143.227 38.6522L145.17 37.5681L145.616 38.3584C145.65 38.1567 145.677 37.9551 145.704 37.7495L145.494 37.3817L145.757 37.231C145.771 37.0844 145.784 36.9378 145.792 36.7886ZM111.209 29.5308L110.112 27.5941L112.048 26.497L113.145 28.4336L111.209 29.5308ZM113.47 28.2512L112.373 26.3145L114.309 25.2174L115.407 27.154L113.47 28.2512ZM115.731 26.9715L114.634 25.0349L116.571 23.9377L117.668 25.8744L115.731 26.9715ZM117.993 25.6919L116.894 23.7579L118.831 22.6608L119.929 24.5948L117.993 25.6919ZM120.253 24.4149L119.137 22.4823L121.074 21.3852L122.171 23.3218L120.253 24.4149ZM107.985 34.3512L106.867 32.4239L108.804 31.3267L109.902 33.2607L107.985 34.3512ZM110.245 33.0742L109.128 31.1443L111.065 30.0471L112.162 31.9837L110.245 33.0742ZM112.507 31.7946L111.39 29.8647L113.326 28.7675L114.424 30.7041L112.507 31.7946ZM114.768 30.515L113.651 28.5851L115.588 27.4879L116.685 29.4245L114.768 30.515ZM117.029 29.2354L115.913 27.3054L117.849 26.2083L118.946 28.1449L117.029 29.2354ZM119.291 27.9558L118.173 26.0285L120.109 24.9313L121.208 26.8653L119.291 27.9558ZM121.552 26.6762L120.454 24.7422L122.39 23.645L123.489 25.579L121.552 26.6762ZM123.812 25.3992L122.715 23.4626L124.652 22.3654L125.749 24.302L123.812 25.3992ZM126.074 24.1196L124.976 22.183L126.913 21.0858L128.01 23.0224L126.074 24.1196ZM104.923 39.0687L103.826 37.1321L105.568 36.1446L106.666 38.0813L104.923 39.0687ZM106.988 37.8975L105.891 35.9609L107.827 34.8637L108.924 36.8004L106.988 37.8975ZM109.249 36.6179L108.151 34.6839L110.087 33.5867L111.186 35.5208L109.249 36.6179ZM111.509 35.3409L110.412 33.4043L112.349 32.3071L113.446 34.2438L111.509 35.3409ZM113.771 34.0613L112.673 32.1247L114.61 31.0275L115.707 32.9642L113.771 34.0613ZM116.032 32.7817L114.935 30.8451L116.871 29.7479L117.969 31.6845L116.032 32.7817ZM118.293 31.5021L117.196 29.5655L119.133 28.4683L120.23 30.4049L118.293 31.5021ZM120.555 30.2225L119.456 28.2885L121.393 27.1913L122.491 29.1253L120.555 30.2225ZM122.816 28.9429L121.718 27.0089L123.654 25.9117L124.739 27.8262L122.816 28.9429ZM125.076 27.6659L123.979 25.7293L125.916 24.6321L127.013 26.5687L125.076 27.6659ZM127.337 26.3863L126.24 24.4497L128.177 23.3525L129.274 25.2891L127.337 26.3863ZM129.599 25.1067L128.481 23.1466L130.417 22.0494L131.513 23.9887L129.599 25.1067ZM131.86 23.8271L130.763 21.8904L132.7 20.7933L133.797 22.7299L131.86 23.8271ZM106.204 41.3275L105.107 39.3908L106.855 38.406L107.952 40.3426L106.204 41.3275ZM108.274 40.1589L107.177 38.2222L109.116 37.1264L110.213 39.063L108.274 40.1589ZM110.535 38.8793L109.437 36.9452L111.376 35.8494L112.475 37.7834L110.535 38.8793ZM112.798 37.597L111.701 35.6604L113.637 34.5698L114.735 36.5064L112.798 37.597ZM115.059 36.3174L113.962 34.3808L115.899 33.2836L116.996 35.2202L115.059 36.3174ZM117.321 35.0378L116.223 33.1012L118.157 32.0027L119.257 33.9406L117.321 35.0378ZM119.582 33.7582L118.485 31.8216L120.419 30.7231L121.519 32.661L119.582 33.7582ZM121.843 32.4786L120.745 30.5446L122.682 29.4474L123.78 31.3814L121.843 32.4786ZM124.105 31.199L123.006 29.265L124.94 28.1665L126.041 30.1018L124.105 31.199ZM126.365 29.922L125.268 27.9853L127.202 26.8869L128.299 28.8235L126.365 29.922ZM128.626 28.6424L127.529 26.7057L129.463 25.6073L130.56 27.5439L128.626 28.6424ZM130.888 27.3627L129.76 25.408L131.694 24.3095L132.79 26.2488L130.888 27.3627ZM133.149 26.0831L132.052 24.1465L133.986 23.048L135.083 24.9847L133.149 26.0831ZM135.41 24.8035L134.312 22.8695L136.246 21.7711L137.344 23.7051L135.41 24.8035ZM105.263 44.8787L104.166 42.942L106.103 41.8449L107.15 43.7635L105.263 44.8787ZM107.524 43.5991L106.43 41.6637L108.172 40.6763L109.267 42.6116L107.524 43.5991ZM109.592 42.4292L108.445 40.4745L110.379 39.376L111.476 41.3127L109.592 42.4292ZM111.853 41.1496L110.705 39.1975L112.639 38.0991L113.737 40.0331L111.853 41.1496ZM114.114 39.8699L112.966 37.9179L114.9 36.8194L115.998 38.7534L114.114 39.8699ZM116.374 38.593L115.227 36.6383L117.161 35.5398L118.259 37.4765L116.374 38.593ZM118.636 37.3133L117.489 35.3587L119.423 34.2602L120.522 36.1851L118.636 37.3133ZM120.897 36.0337L119.75 34.0791L121.684 32.9806L122.781 34.9172L120.897 36.0337ZM123.158 34.7541L122.01 32.8021L123.944 31.7036L125.043 33.6376L123.158 34.7541ZM125.42 33.4745L124.277 31.512L126.211 30.4135L127.296 32.3476L125.42 33.4745ZM127.68 32.1975L126.533 30.2429L128.467 29.1444L129.565 31.0784L127.68 32.1975ZM129.941 30.9179L128.844 28.9813L130.781 27.8841L131.878 29.8207L129.941 30.9179ZM132.203 29.6383L131.037 27.668L132.974 26.5709L134.07 28.5101L132.203 29.6383ZM134.464 28.3587L133.367 26.4221L135.303 25.3249L136.401 27.2615L134.464 28.3587ZM136.725 27.0791L135.627 25.1451L137.563 24.0479L138.662 25.9819L136.725 27.0791ZM104.246 48.4055L103.149 46.4688L105.085 45.3717L106.183 47.3083L104.246 48.4055ZM106.507 47.1258L105.41 45.1892L107.347 44.092L108.444 46.0287L106.507 47.1258ZM108.769 45.8462L107.666 43.907L109.409 42.9196L110.506 44.8562L108.769 45.8462ZM110.836 44.6763L109.739 42.7397L111.673 41.6412L112.77 43.5779L110.836 44.6763ZM113.097 43.3967L112.001 41.464L113.935 40.3656L115.034 42.2996L113.097 43.3967ZM115.358 42.1171L114.26 40.1831L116.197 39.0859L117.295 41.0199L115.358 42.1171ZM117.619 40.8401L116.521 38.9035L118.458 37.8063L119.555 39.743L117.619 40.8401ZM119.88 39.5605L118.772 37.6056L120.706 36.5072L121.802 38.4464L119.88 39.5605ZM122.141 38.2809L121.044 36.3443L122.981 35.2471L124.078 37.1837L122.141 38.2809ZM124.403 37.0013L123.305 35.0647L125.241 33.9701L126.339 35.9041L124.403 37.0013ZM126.664 35.7217L125.543 33.7669L127.48 32.6697L128.576 34.609L126.664 35.7217ZM128.924 34.4447L127.827 32.5081L129.764 31.4109L130.862 33.3449L128.924 34.4447ZM131.185 33.1651L130.088 31.2285L132.025 30.1313L133.122 32.0679L131.185 33.1651ZM133.447 31.8855L132.317 29.9294L134.253 28.8322L135.349 30.7715L133.447 31.8855ZM135.708 30.6059L134.611 28.6692L136.548 27.5721L137.645 29.5087L135.708 30.6059ZM137.97 29.3263L136.871 27.3923L138.808 26.2951L139.906 28.2291L137.97 29.3263ZM140.231 28.0466L139.09 26.0919L141.027 24.9948L142.123 26.934L140.231 28.0466ZM105.527 50.6642L104.43 48.7276L106.366 47.6304L107.463 49.567L105.527 50.6642ZM107.788 49.3846L106.691 47.448L108.628 46.3508L109.725 48.2874L107.788 49.3846ZM110.05 48.105L108.952 46.1683L110.695 45.1809L111.792 47.1175L110.05 48.105ZM112.114 46.9338L111.017 44.9972L112.953 43.9L114.051 45.8366L112.114 46.9338ZM114.375 45.6542L113.277 43.7202L115.214 42.623L116.312 44.557L114.375 45.6542ZM116.635 44.3772L115.538 42.4406L117.475 41.3434L118.573 43.2774L116.635 44.3772ZM118.897 43.0976L117.8 41.161L119.736 40.0638L120.833 42.0004L118.897 43.0976ZM121.158 41.818L120.049 39.8657L121.986 38.7685L123.082 40.7078L121.158 41.818ZM123.42 40.5384L122.322 38.6017L124.259 37.5046L125.356 39.4412L123.42 40.5384ZM125.681 39.2587L124.584 37.3221L126.519 36.2276L127.618 38.1616L125.681 39.2587ZM127.942 37.9791L126.823 36.0282L128.759 34.9311L129.855 36.8703L127.942 37.9791ZM130.202 36.7021L129.105 34.7655L131.042 33.6683L132.139 35.605L130.202 36.7021ZM132.464 35.4225L131.367 33.4859L133.303 32.3887L134.4 34.3254L132.464 35.4225ZM134.725 34.1429L133.596 32.1908L135.533 31.0936L136.629 33.0329L134.725 34.1429ZM136.986 32.8633L135.889 30.9267L137.826 29.8295L138.923 31.7661L136.986 32.8633ZM139.248 31.5837L138.149 29.6497L140.087 28.5499L141.184 30.4865L139.248 31.5837ZM141.509 30.3041L140.37 28.3533L142.307 27.2561L143.403 29.1954L141.509 30.3041ZM106.813 52.9124L105.716 50.9758L107.652 49.8786L108.75 51.8153L106.813 52.9124ZM109.074 51.6328L107.977 49.6962L109.914 48.599L111.011 50.5356L109.074 51.6328ZM111.336 50.3532L110.238 48.4166L111.981 47.4291L113.078 49.3658L111.336 50.3532ZM113.4 49.182L112.282 47.2481L114.219 46.151L115.316 48.0876L113.4 49.182ZM115.661 47.9024L114.547 45.9607L116.484 44.8635L117.588 46.8066L115.661 47.9024ZM117.923 46.6228L116.803 44.6915L118.74 43.5944L119.839 45.5284L117.923 46.6228ZM120.183 45.3458L119.065 43.4119L121.001 42.3148L122.099 44.2514L120.183 45.3458ZM122.444 44.0662L121.329 42.1271L123.265 41.0299L124.361 42.9691L122.444 44.0662ZM124.706 42.7866L123.588 40.8527L125.524 39.7555L126.621 41.6922L124.706 42.7866ZM126.967 41.507L125.849 39.5731L127.786 38.4759L128.883 40.4126L126.967 41.507ZM129.228 40.2274L128.11 38.2935L130.047 37.1963L131.135 39.1317L129.228 40.2274ZM131.49 38.9478L130.37 37.0165L132.307 35.9193L133.405 37.8533L131.49 38.9478ZM133.75 37.6708L132.632 35.7369L134.56 34.6227L135.658 36.5594L133.75 37.6708ZM136.011 36.3912L134.876 34.4521L136.813 33.355L137.909 35.2942L136.011 36.3912ZM138.273 35.1116L137.175 33.1749L139.112 32.0778L140.209 34.0144L138.273 35.1116ZM140.534 33.8319L139.435 31.8979L141.334 30.7853L142.431 32.7219L140.534 33.8319ZM142.795 32.5523L141.65 30.6147L143.586 29.5175L144.682 31.4568L142.795 32.5523ZM110.347 53.9008L109.25 51.9641L111.187 50.867L112.281 52.8023L110.347 53.9008ZM112.609 52.6212L111.512 50.6845L113.254 49.6971L114.351 51.6337L112.609 52.6212ZM114.673 51.45L113.576 49.5133L115.513 48.4162L116.61 50.3528L114.673 51.45ZM116.935 50.1704L115.835 48.2259L117.771 47.1287L118.87 49.0627L116.935 50.1704ZM119.196 48.8907L118.097 46.9567L120.034 45.8596L121.133 47.7936L119.196 48.8907ZM121.456 47.6138L120.359 45.6771L122.295 44.58L123.393 46.5166L121.456 47.6138ZM123.717 46.3342L122.608 44.3884L124.545 43.2913L125.641 45.2305L123.717 46.3342ZM125.979 45.0545L124.882 43.1179L126.818 42.0207L127.915 43.9574L125.979 45.0545ZM128.24 43.7749L127.143 41.8383L129.066 40.7216L130.161 42.6569L128.24 43.7749ZM130.501 42.4953L129.382 40.551L131.319 39.4538L132.412 41.3918L130.501 42.4953ZM132.763 41.2157L131.664 39.2817L133.601 38.1845L134.697 40.1172L132.763 41.2157ZM135.023 39.9387L133.926 38.0021L135.84 36.8841L136.935 38.8194L135.023 39.9387ZM137.284 38.6591L136.156 36.7135L138.092 35.6163L139.185 37.5543L137.284 38.6591ZM139.546 37.3795L138.448 35.4429L140.385 34.3457L141.48 36.281L139.546 37.3795ZM141.807 36.0999L140.709 34.1659L142.646 33.0661L143.741 35.0014L141.807 36.0999ZM111.662 56.1763L110.565 54.2397L112.499 53.1412L113.596 55.0779L111.662 56.1763ZM113.924 54.8967L112.827 52.9601L114.53 51.9532L115.627 53.8899L113.924 54.8967ZM115.988 53.7255L114.891 51.7889L116.828 50.6917L117.925 52.6284L115.988 53.7255ZM118.25 52.4459L117.114 50.4873L119.05 49.3927L120.146 51.3254L118.25 52.4459ZM120.511 51.1663L119.412 49.2323L121.349 48.1351L122.445 50.0678L120.511 51.1663ZM122.772 49.8867L121.674 47.9527L123.608 46.8542L124.705 48.7908L122.772 49.8867ZM125.032 48.6097L123.888 46.6498L125.835 45.5578L126.93 47.4931L125.032 48.6097ZM127.294 47.3301L126.197 45.3935L128.131 44.295L129.228 46.2316L127.294 47.3301ZM129.555 46.0505L128.458 44.1139L130.343 42.9816L131.44 44.9183L129.555 46.0505ZM131.816 44.7709L130.662 42.8123L132.596 41.7139L133.691 43.6531L131.816 44.7709ZM134.078 43.4913L132.979 41.5573L134.913 40.4588L136.012 42.3928L134.078 43.4913ZM136.338 42.2143L135.243 40.2789L137.117 39.1442L138.214 41.0808L136.338 42.2143ZM138.599 40.9347L137.435 38.9749L139.369 37.8764L140.465 39.8157L138.599 40.9347ZM140.861 39.655L139.763 37.7184L141.697 36.62L142.795 38.5566L140.861 39.655ZM143.122 38.3754L142.024 36.4414L143.961 35.3416L145.059 37.2783L143.122 38.3754ZM138.769 47.2415L139.757 48.9838L137.82 50.081L136.833 48.3386L138.769 47.2415ZM136.509 48.5185L137.497 50.2608L135.56 51.3579L134.498 49.5951L136.509 48.5185ZM134.195 49.7722L135.183 51.5145L133.246 52.6117L132.259 50.8694L134.195 49.7722ZM131.934 51.0518L132.921 52.7941L130.985 53.8913L129.997 52.149L131.934 51.0518ZM129.673 52.3314L130.66 54.0737L128.723 55.1709L127.724 53.4326L129.673 52.3314ZM127.414 53.6058L128.401 55.3481L126.465 56.4453L125.477 54.703L127.414 53.6058ZM125.152 54.8854L126.141 56.6251L124.205 57.7223L123.216 55.9826L125.152 54.8854ZM141.94 42.3821L143.037 44.3187L141.101 45.4159L139.992 43.4963L141.94 42.3821ZM139.679 43.6617L140.776 45.5983L138.839 46.6955L137.742 44.7588L139.679 43.6617ZM137.417 44.9413L138.516 46.8753L136.579 47.979L135.481 46.045L137.417 44.9413ZM135.156 46.2209L136.251 48.1758L134.314 49.273L133.218 47.3338L135.156 46.2209ZM132.896 47.4979L133.993 49.4345L132.057 50.5317L130.959 48.595L132.896 47.4979ZM130.635 48.7775L131.732 50.7141L129.795 51.8113L128.698 49.8747L130.635 48.7775ZM128.373 50.0571L129.47 51.9937L127.536 53.0922L126.437 51.1543L128.373 50.0571ZM126.112 51.3367L127.209 53.2733L125.272 54.3705L124.175 52.4339L126.112 51.3367ZM123.851 52.6163L124.949 54.5503L123.012 55.6475L121.914 53.7135L123.851 52.6163ZM121.59 53.8933L122.717 55.8572L120.783 56.9557L119.674 55.01L121.59 53.8933ZM119.329 55.1729L120.426 57.1095L118.492 58.208L117.395 56.2714L119.329 55.1729ZM115.147 57.1205L114.05 55.1838L115.789 54.1951L116.887 56.1317L115.147 57.1205ZM117.211 55.9493L116.114 54.0126L118.048 52.9142L119.145 54.8508L117.211 55.9493ZM119.473 54.6697L118.394 52.7486L120.327 51.6528L121.425 53.5868L119.473 54.6697ZM121.734 53.39L120.641 51.4652L122.575 50.3667L123.673 52.3007L121.734 53.39ZM123.994 52.1131L122.902 50.1856L124.849 49.0805L125.946 51.0171L123.994 52.1131ZM126.256 50.8335L125.162 48.9086L127.096 47.8101L128.194 49.7467L126.256 50.8335ZM128.517 49.5538L127.417 47.6159L129.354 46.5187L130.451 48.4554L128.517 49.5538ZM130.778 48.2742L129.686 46.3467L131.623 45.243L132.72 47.1796L130.778 48.2742ZM133.04 46.9946L131.944 45.075L133.878 43.9765L134.971 45.9145L133.04 46.9946ZM135.301 45.715L134.208 43.7901L136.144 42.693L137.243 44.627L135.301 45.715ZM137.561 44.438L136.469 42.5105L138.397 41.4055L139.494 43.3422L137.561 44.438ZM139.822 43.1584L138.725 41.2414L140.662 40.1442L141.745 42.077L139.822 43.1584ZM144.015 40.779L142.081 41.8775L140.981 39.9396L142.918 38.8424L144.015 40.779Z" fill="url(#paint0_linear_1_377)"/>
<path d="M137.186 54.957C136.625 54.5167 136.1 54.0333 135.615 53.5112C134.835 54.0642 134.028 54.5776 133.197 55.0495C122.345 61.1858 109.59 59.1465 104.671 50.4768C100.173 42.5621 103.766 31.887 112.646 25.4049C112.165 24.8944 111.744 24.332 111.388 23.7282C101.416 30.9507 97.368 42.912 102.385 51.7539C107.868 61.4292 122.109 63.7111 134.208 56.8557C135.236 56.2794 136.23 55.6455 137.186 54.957Z" fill="#352E35"/>
<path d="M114.679 24.0519L113.312 22.4387C111.932 23.2908 110.623 24.2509 109.395 25.3097L110.757 26.9203C111.979 25.8521 113.291 24.8923 114.679 24.0519Z" fill="#D1D1D1"/>
<path d="M134.091 54.4986L135.456 56.1105C136.828 55.2463 138.13 54.2764 139.351 53.2095L137.984 51.5963C136.774 52.6757 135.471 53.6469 134.091 54.4986Z" fill="#D1D1D1"/>
<g style="mix-blend-mode:soft-light">
<path d="M144.445 27.7882C149.282 36.3198 144.894 48.003 134.655 54.2745C134.943 54.1298 135.228 53.9764 135.508 53.8143C146.114 47.818 150.202 36.1078 145.246 27.3479C140.29 18.588 127.422 17.0544 118.431 21.4268C115.728 22.7495 113.18 24.3686 110.834 26.2542C112.042 25.4635 116.616 22.3715 120.083 21.0993C129.801 17.5156 140.111 20.15 144.445 27.7882Z" fill="white"/>
</g>
<path d="M103.228 51.4064C98.1678 42.481 103.326 33.4507 105.298 29.8856C99.7909 36.2619 98.4853 44.8944 102.44 51.8532C106.771 59.4927 116.528 62.057 124.876 60.1731C119.997 60.756 107.761 59.4033 103.228 51.4064Z" fill="#2B242A"/>
<path d="M89.939 62.2417C89.7755 62.3193 89.588 62.3293 89.4171 62.2695C89.2463 62.2098 89.1059 62.0851 89.0265 61.9225L86.8454 58.0753C86.7459 57.9237 86.7107 57.7388 86.7475 57.5612C86.7842 57.3836 86.8899 57.2279 87.0414 57.1282C87.2047 57.0498 87.3925 57.0394 87.5636 57.0992C87.7346 57.159 87.875 57.2843 87.9539 57.4474L90.1336 61.2906C90.2329 61.4429 90.2681 61.6281 90.2317 61.8061C90.1952 61.9842 90.09 62.1407 89.939 62.2417Z" fill="#2B242A"/>
<path d="M86.8336 57.6535L84.6781 58.8759L87.2238 63.3651L89.3794 62.1427L86.8336 57.6535Z" fill="#161013"/>
<path d="M87.3998 63.6815C87.2359 63.7598 87.0476 63.7701 86.8761 63.7101C86.7047 63.65 86.5639 63.5245 86.4847 63.361L84.3049 59.5178C84.2057 59.3655 84.1705 59.1803 84.2069 59.0023C84.2434 58.8242 84.3485 58.6677 84.4996 58.5667C84.6637 58.489 84.8519 58.4793 85.0231 58.5399C85.1944 58.6004 85.3347 58.7262 85.4134 58.8899L87.5932 62.7331C87.6918 62.885 87.7267 63.0695 87.6905 63.2469C87.6544 63.4243 87.55 63.5803 87.3998 63.6815Z" fill="#2B242A"/>
</g>
<path d="M64.9466 124.339C64.0104 121.413 64.5565 98.7398 64.9466 87.7687L70.2809 89.6703C69.8421 94.0588 75.04 107.955 75.04 109.146C78.15 107.162 83.4129 105.664 86.7425 105.03C88.8392 107.322 92.8863 112.081 92.3012 112.783C91.5698 113.66 66.1169 127.996 64.9466 124.339Z" fill="#FF7CA6"/>
<mask id="mask0_1_377" style="mask-type:alpha" maskUnits="userSpaceOnUse" x="64" y="87" width="29" height="38">
<path d="M64.9474 124.339C64.0112 121.413 64.5573 98.7398 64.9474 87.7687L70.2817 89.6703C69.8429 94.0588 75.0408 107.955 75.0408 109.146C78.1508 107.162 83.4137 105.664 86.7433 105.03C88.84 107.322 92.8871 112.081 92.302 112.783C91.5706 113.66 66.1177 127.996 64.9474 124.339Z" fill="#FF7CA6"/>
</mask>
<g mask="url(#mask0_1_377)">
<path d="M63.1925 126.387C62.2563 123.461 62.8024 100.788 63.1925 89.8167L68.5268 91.7183C68.088 96.1067 73.2859 110.003 73.2859 111.194C76.3959 109.21 81.6588 107.712 84.9884 107.078C87.0851 109.37 91.1322 114.129 90.5471 114.831C89.8157 115.708 64.3628 130.044 63.1925 126.387Z" fill="#FB94B5"/>
<path d="M62.315 129.312C61.3788 126.387 61.9249 103.713 62.315 92.7421L67.3568 90.6942C66.9179 95.0826 72.4084 112.929 72.4084 114.119C75.5184 112.135 80.7813 110.638 84.1109 110.003C86.2076 112.295 90.2547 117.054 89.6696 117.756C88.9382 118.634 63.4853 132.969 62.315 129.312Z" fill="#FFAFC9"/>
<path d="M65.3093 95.0826C65.4263 94.2634 64.8705 91.7181 64.5779 90.5479L60.3358 124.485C62.4325 125.119 66.8306 126.445 67.6498 126.679C68.6738 126.972 76.0261 122.215 74.9639 122.291C70.868 122.583 66.3333 124.339 65.8944 123.754C65.4556 123.169 65.6019 122.145 65.6019 120.243C65.6019 118.716 65.4556 111.173 65.3093 110.003C65.163 108.833 65.3093 105.907 65.3093 105.176C65.3093 104.445 65.163 96.1065 65.3093 95.0826Z" fill="#FEF2F7"/>
</g>
<path d="M94.9662 250.424C91.5572 246.223 98.3303 196.482 102.143 172.137C109.389 169.419 117.12 160.624 120.079 156.566C120.131 157.248 121.086 159.81 124.497 164.595C127.908 169.381 130.042 174.181 130.682 175.983C131.212 193.184 122.273 223.795 117.737 236.951C131.773 238.168 147.646 253.394 153.956 261.035L150.777 271.871C148.773 270.513 141.454 266.463 128.211 261.128C111.657 254.459 99.2274 255.674 94.9662 250.424Z" fill="url(#paint1_linear_1_377)"/>
<mask id="mask1_1_377" style="mask-type:alpha" maskUnits="userSpaceOnUse" x="94" y="156" width="60" height="116">
<path d="M94.9662 250.424C91.5572 246.223 98.3303 196.482 102.143 172.137C109.389 169.419 117.12 160.624 120.079 156.566C120.131 157.248 121.086 159.81 124.497 164.595C127.908 169.381 130.042 174.181 130.682 175.983C131.212 193.184 122.273 223.795 117.737 236.951C131.773 238.168 147.646 253.394 153.956 261.035L150.777 271.871C148.773 270.513 141.454 266.463 128.211 261.128C111.657 254.459 99.2274 255.674 94.9662 250.424Z" fill="#F89AB8"/>
</mask>
<g mask="url(#mask1_1_377)">
<path d="M91.4662 253.362C88.0573 249.162 94.8304 199.421 98.643 175.075C105.889 172.357 112.563 162.396 115.523 158.338C115.574 159.02 117.586 162.748 120.997 167.534C124.408 172.32 120.383 173.192 121.024 174.994C121.539 191.705 119.828 221.885 115.511 235.721C115.13 236.36 115.072 237.047 114.977 237.461C114.954 237.563 114.975 237.673 115.048 237.75C115.291 238.006 115.867 238.575 116.253 238.644C130.743 240.932 153.714 262.409 159.811 269.791L147.277 274.81C145.273 273.452 137.954 269.402 124.711 264.067C108.157 257.398 95.7274 258.613 91.4662 253.362Z" fill="#FBC6D7"/>
<mask id="mask2_1_377" style="mask-type:alpha" maskUnits="userSpaceOnUse" x="90" y="158" width="70" height="117">
<path d="M91.4662 253.362C88.0573 249.162 94.8304 199.421 98.643 175.075C105.889 172.357 112.563 162.396 115.523 158.338C115.574 159.02 117.586 162.748 120.997 167.534C124.408 172.32 120.383 173.192 121.024 174.994C121.539 191.705 119.828 221.885 115.511 235.721C115.13 236.36 115.072 237.047 114.977 237.461C114.954 237.563 114.975 237.673 115.048 237.75C115.291 238.006 115.867 238.575 116.253 238.644C130.743 240.932 153.714 262.409 159.811 269.791L147.277 274.81C145.273 273.452 137.954 269.402 124.711 264.067C108.157 257.398 95.7274 258.613 91.4662 253.362Z" fill="#FBC6D7"/>
</mask>
<g mask="url(#mask2_1_377)">
<path d="M111.787 226.519C114.778 204.127 109.178 183.814 111.948 181.463C124.016 214.967 160.07 269 157.608 267.604L152.342 267.623C149.234 257.834 119.058 246.24 113.478 240.409C111.335 238.17 111.262 229.69 111.787 226.519Z" fill="#FEB3CB"/>
</g>
<path d="M103.067 192.905C104.805 188.101 106.806 175.143 106.052 168.904C93.7982 178.164 90.819 244.148 90.8387 249.561C90.8543 253.891 124.864 273.769 141.867 283.167L157.185 271.848C150.437 266.655 124.335 256.9 121.283 254.57C117.47 251.659 101.229 250.693 99.3181 248.214C97.4075 245.734 99.2673 234.171 99.2397 226.564C99.2122 218.958 100.895 198.911 103.067 192.905Z" fill="#FEF2F7"/>
</g>
<path d="M103.346 179.195L86.3778 161.787C65.167 181.096 61.51 197.772 57.4141 205.379C53.3182 212.985 54.4885 210.938 51.124 222.055C47.7596 233.172 34.5943 262.136 34.8868 266.817C35.1209 270.562 40.8356 270.718 43.6637 270.328C68.59 233.348 71.067 220.787 68.9703 218.983C85.9389 208.217 98.8117 187.874 103.346 179.195Z" fill="#FF7CA6"/>
<mask id="mask3_1_377" style="mask-type:alpha" maskUnits="userSpaceOnUse" x="34" y="161" width="70" height="110">
<path d="M103.346 179.195L86.3778 161.787C65.167 181.096 61.51 197.772 57.4141 205.379C53.3182 212.985 54.4885 210.938 51.124 222.055C47.7596 233.172 34.5943 262.136 34.8868 266.817C35.1209 270.562 40.8356 270.718 43.6637 270.328C68.59 233.348 71.067 220.787 68.9703 218.983C85.9389 208.217 98.8117 187.874 103.346 179.195Z" fill="#FF7CA6"/>
</mask>
<g mask="url(#mask3_1_377)">
<path d="M100.42 179.194L83.4511 161.787C62.2404 181.096 58.5834 197.772 54.4875 205.378C50.3916 212.985 51.5619 210.937 48.1974 222.054C44.8329 233.172 31.6676 262.135 31.9602 266.816C32.1942 270.561 37.9089 270.717 40.7371 270.327C62.5567 237.956 65.809 226.638 66.3314 220.445C66.4058 219.564 67.0629 218.69 66.9166 217.812C67.6613 217.34 68.8232 216.998 69.5496 216.496C85.3755 205.555 96.084 187.492 100.42 179.194Z" fill="#FEB3CB"/>
<path d="M94.4177 170.71L81.6961 159.739C60.4853 179.048 56.8283 195.724 52.7324 203.331C48.6365 210.938 49.8068 208.89 46.4423 220.007C43.0779 231.124 29.9126 260.088 30.2051 264.769C30.4392 268.514 36.7342 269.401 39.5623 269.011C48.6317 254.968 62.1523 226.2 62.6747 220.007C62.7491 219.125 63.4061 218.252 63.2598 217.374C64.0045 216.901 67.0681 214.951 67.7946 214.448C83.6204 203.507 90.082 179.009 94.4177 170.71Z" fill="#FBC6D7"/>
<path d="M71.8909 183.583C73.1782 181.945 83.2521 169.54 88.1281 163.543C87.4942 162.47 85.7291 160.5 83.7397 161.202C81.2529 162.08 72.7686 167.346 59.8959 179.487C47.0231 191.629 30.2008 264.623 29.3231 266.524C28.621 268.046 32.9314 268.524 35.1743 268.572C39.319 257.894 47.9593 235.718 49.3636 232.441C51.119 228.345 56.3851 212.254 57.1165 210.353C57.8479 208.451 70.2818 185.631 71.8909 183.583Z" fill="#FEF2F7"/>
</g>
<path d="M107.437 203.623C94.2135 186.303 80.5704 175.927 75.4018 172.904C76.1039 170.68 82.4233 164.663 85.4952 161.933C97.3147 181.827 113.727 168.662 120.456 159.592C136.606 168.603 132.159 189.678 127.917 199.088C123.187 201.039 113.727 204.676 113.727 203.623V193.968C111.738 196.777 108.705 201.575 107.437 203.623Z" fill="url(#paint2_linear_1_377)"/>
<mask id="mask4_1_377" style="mask-type:alpha" maskUnits="userSpaceOnUse" x="75" y="159" width="57" height="45">
<path d="M107.437 203.623C94.2135 186.303 80.5704 175.927 75.4018 172.904C76.1039 170.68 82.4233 164.663 85.4952 161.933C97.3147 181.827 113.727 168.662 120.456 159.592C136.606 168.603 132.159 189.678 127.917 199.088C123.187 201.039 113.727 204.676 113.727 203.623V193.968C111.738 196.777 108.705 201.575 107.437 203.623Z" fill="url(#paint3_linear_1_377)"/>
</mask>
<g mask="url(#mask4_1_377)">
<path d="M74.6705 168.808C79.712 172.518 82.9073 174.055 91.3465 182.705C100.855 190.604 107.064 197.845 109.193 199.966C112.718 203.479 111.592 202.428 111.826 203.331C120.895 200.99 128.18 198.269 132.744 194.993" stroke="white" stroke-opacity="0.5" stroke-width="0.292562"/>
<path d="M116.799 162.669C120.212 162.377 132.012 174.811 122.358 203.335" stroke="white" stroke-opacity="0.49" stroke-width="0.292562"/>
<path d="M112.411 177.731C111.825 180.511 108.217 181.973 106.267 182.559V180.364C108.022 181.184 110.509 179.779 112.411 177.731Z" fill="url(#paint4_linear_1_377)"/>
<path d="M92.0773 174.952C95.9782 176.805 105.33 179.399 111.533 174.952C110.216 178.658 104.482 183.846 92.0773 174.952Z" fill="url(#paint5_linear_1_377)"/>
<path d="M119.432 159.211C121.619 160.429 125.335 166.726 126.746 176.854C127.337 181.092 129.189 185.038 128.063 189.873C127.139 193.837 124.862 199.955 122.212 203.973L139.034 197.098C137.961 185.395 134.704 161.435 130.257 159.211C125.81 156.988 121.188 158.285 119.432 159.211Z" fill="#647B64" fill-opacity="0.5"/>
<path d="M78.3278 172.319C80.2295 174.367 89.4452 182.851 89.2989 184.168L74.0857 172.758L75.5485 167.785L85.3493 160.47C88.275 161.885 93.7166 165.151 92.0783 166.907C90.4399 168.662 88.0799 166.761 87.1047 165.59C84.1791 166.907 83.594 166.907 82.57 167.785C81.546 170.564 78.3278 172.027 78.3278 172.319Z" fill="url(#paint6_linear_1_377)"/>
</g>
<path d="M115.378 131.946C116.314 142.595 120.156 155.692 121.96 160.909C103.968 186.216 87.5842 170.417 85.8288 164.712C84.4245 160.149 84.5611 142.234 84.8049 133.847C80.8553 131.946 72.8098 121.852 78.9536 116.879C83.8687 112.9 93.0036 105.322 97.7821 101.08H105.974C115.628 108.248 114.207 118.634 115.378 131.946Z" fill="url(#paint7_linear_1_377)"/>
<mask id="mask5_1_377" style="mask-type:alpha" maskUnits="userSpaceOnUse" x="76" y="101" width="46" height="74">
<path d="M115.377 131.945C116.313 142.594 120.155 155.691 121.959 160.909C103.967 186.215 87.5834 170.417 85.828 164.712C84.4237 160.148 84.5603 142.234 84.8041 133.847C80.8545 131.945 72.809 121.852 78.9528 116.878C83.8679 112.899 93.0028 105.322 97.7813 101.08H105.973C115.628 108.248 114.207 118.634 115.377 131.945Z" fill="url(#paint8_linear_1_377)"/>
</mask>
<g mask="url(#mask5_1_377)">
<path d="M108.315 112.489C108.315 119.356 103.212 122.876 96.7226 122.876C90.2329 122.876 84.032 117.31 84.032 110.443C84.032 103.577 89.1346 100.056 95.6242 100.056C102.114 100.056 108.315 105.623 108.315 112.489Z" fill="#647B64"/>
<path d="M107.22 112.105C107.22 118.355 102.486 121.56 96.4659 121.56C90.4455 121.56 84.032 116.054 84.032 109.804C84.032 103.553 88.7657 100.349 94.7862 100.349C100.807 100.349 107.22 105.855 107.22 112.105Z" fill="#647B64"/>
<path d="M87.2502 143.168C88.0683 139.834 83.2016 134.651 81.9841 133.262L79.6436 164.05L83.15 168.516C87.9714 167.176 84.3744 160.138 87.2502 154.034C89.0034 150.313 86.2275 147.336 87.2502 143.168Z" fill="url(#paint9_linear_1_377)"/>
<path d="M90.1635 148.329C91.1875 153.254 87.3842 159.739 99.5255 167.346C91.9189 167.346 86.5358 164.01 90.1635 148.329Z" fill="url(#paint10_linear_1_377)"/>
<path d="M91.1358 150.562C91.8779 152.093 91.1889 154.533 95.7502 156.029C93.2901 156.655 91.2709 156.004 91.1358 150.562Z" fill="url(#paint11_linear_1_377)"/>
<path d="M110.135 120.495C110.135 116.107 110.047 111.473 107.127 107.663C109.511 108.535 112.915 114.352 110.135 120.495Z" fill="url(#paint12_linear_1_377)"/>
<path d="M84.3247 133.847C88.2029 133.249 90.1759 134.286 96.5165 130.482C95.4654 131.647 85.7875 140.722 84.3247 133.847Z" fill="#647B64"/>
<path d="M134.061 149.437C131.361 154.844 127.017 149.437 122.028 149.437C112.931 137.977 114.566 123.961 112.931 113.891C108.089 96.5546 93.4152 103.451 86.6655 99.0435C90.9697 95.5664 107.883 92.0734 112.931 96.7749C119.24 102.652 134.061 143.119 134.061 149.437Z" fill="#647B64"/>
<path d="M75.8406 121.99L81.6918 108.971L85.2026 110.833L84.1786 113.514C83.2638 115.51 81.2254 118.669 78.6199 120.399C77.3034 120.399 78.2489 125.87 77.8885 126.086C77.2675 126.457 76.3048 121.785 75.8406 121.99Z" fill="url(#paint13_linear_1_377)"/>
</g>
<path d="M169.305 265.514L166.228 263.916C161.532 300.357 149.243 299.963 144.251 294.861C156.741 310.322 166.431 279.568 166.576 279.274C169.953 274.581 171.365 268.725 171.5 265.506L169.305 265.514Z" fill="#CAF4F3"/>
<path d="M153.774 258.695C153.665 260.311 153.157 262.679 151.236 266.025C150.088 264.669 148.484 262.882 147.644 262.374C146.184 263.403 144.45 269.261 144.014 269.848C144.953 270.781 146.85 272.178 147.681 272.76C144.658 278.037 144.037 289.693 144.104 294.862C156.436 307.105 164.971 280.499 167.696 265.666C166.163 262.395 159.34 260.625 156.12 260.149L153.774 258.695Z" fill="#F6FEFD"/>
<path d="M145.764 289.929C146.934 291.1 149.713 292.27 153.37 289.929" stroke="#14D1A4" stroke-width="0.877687" stroke-linecap="round" stroke-linejoin="round"/>
<path d="M146.348 285.833C147.519 287.003 151.176 287.881 153.955 285.833" stroke="#14D1A4" stroke-width="0.877687" stroke-linecap="round" stroke-linejoin="round"/>
<path d="M147.519 282.03C148.42 282.79 150.445 283.639 153.371 282.03" stroke="#14D1A4" stroke-width="0.877687" stroke-linecap="round" stroke-linejoin="round"/>
<path d="M144.246 293.691C147.67 296.604 155.789 297.979 160.873 280.173" stroke="#CEF4F4" stroke-width="0.585124" stroke-linecap="round" stroke-linejoin="round"/>
<path d="M158.753 271.998C154.245 272.934 152.133 273.215 149.249 273.203C149.253 274.139 149.743 274.859 149.987 275.102C153.384 275.909 157.246 273.369 158.753 271.998Z" stroke="#14D1A4" stroke-width="0.292562" stroke-linecap="round"/>
<path d="M149.252 274.081C151.012 275.391 154.417 278.626 153.958 281.085C152.785 280.309 150.201 277.822 149.252 274.081Z" stroke="#14D1A4" stroke-width="0.292562"/>
<path d="M139.464 277.514C143.593 275.58 144.514 275.014 148.371 273.245C148.582 274.257 148.334 274.246 148.29 274.588C145.613 278.96 141.494 277.672 139.464 277.514Z" stroke="#14D1A4" stroke-width="0.292562" stroke-linecap="round"/>
<path d="M148.546 273.839C147.281 275.632 145.052 279.767 146.254 281.961C147.127 280.858 148.808 277.69 148.546 273.839Z" stroke="#14D1A4" stroke-width="0.292562"/>
<circle cx="148.957" cy="273.496" r="0.585124" transform="rotate(-0.207545 148.957 273.496)" fill="#14D1A4" stroke="#14D1A4" stroke-width="0.292562"/>
<path d="M22.9034 298.409C12.4762 300.705 12.9053 293.284 14.4232 289.286C16.7577 301.047 34.408 293.564 42.9414 288.353C42.969 288.861 43.0037 289.963 42.9212 290.305C42.8181 290.731 35.9373 295.539 22.9034 298.409Z" fill="#C5F4F2"/>
<path d="M41.7996 283.111C43.3305 279.267 44.02 272.861 43.9506 270.035C42.7031 270.215 36.8236 268.414 34.2627 267.595C33.5067 270.723 30.3227 276.425 28.8807 278.033C20.4498 281.533 15.7289 286.994 14.4224 289.286C13.05 304.305 41.758 291.378 42.7687 289.064C43.5773 287.213 42.4595 284.324 41.7996 283.111Z" fill="#F1FEFC"/>
<path d="M19.6682 283.785C20.4971 283.932 22.5646 284.809 24.2029 287.15" stroke="#14D1A4" stroke-width="0.877687" stroke-linecap="round" stroke-linejoin="round"/>
<path d="M23.4711 280.86C24.3001 281.006 26.3675 281.884 28.0058 284.224" stroke="#14D1A4" stroke-width="0.877687" stroke-linecap="round" stroke-linejoin="round"/>
<path d="M27.8605 278.227C28.6894 278.373 29.7329 278.519 31.3712 280.86" stroke="#14D1A4" stroke-width="0.877687" stroke-linecap="round" stroke-linejoin="round"/>
<path d="M35.466 262.618L34.2632 267.595C36.5059 271.267 41.0123 271.634 43.1617 271.25C43.3779 269.858 44.4099 267.539 44.8989 266.553C42.86 263.532 37.7607 262.671 35.466 262.618Z" fill="#F7FFFD"/>
<path d="M15.6289 289.277C16.04 291.935 19.07 296.459 27.9008 293.296" stroke="#AAFEE7" stroke-width="0.877687"/>
<path d="M38.5626 286.543C33.541 288.64 30.5929 292.743 29.1165 294.493C30.4777 294.34 33.9762 292.858 35.5552 292.136L38.5626 286.543Z" fill="#AAFEE7" stroke="#DAFFF5" stroke-width="0.292562"/>
<path d="M34.5109 268.526C36.5238 268.951 40.752 270.232 41.5617 271.956C42.5738 274.112 35.5928 271.93 34.5109 268.526Z" fill="white" stroke="#14D1A4" stroke-width="0.292562"/>
<path d="M34.4448 268.708C35.3437 270.772 36.9999 275.27 36.4335 276.751C35.1419 275.685 32.9359 272.584 34.4448 268.708Z" fill="white" stroke="#14D1A4" stroke-width="0.292562"/>
<path d="M34.033 268.377C32.1365 267.579 27.9316 266.224 26.284 267.181C24.2245 268.376 31.2055 270.558 34.033 268.377Z" stroke="#14D1A4" stroke-width="0.292562"/>
<path d="M33.9839 268.564C32.0697 269.749 28.1468 272.503 27.7689 274.043C29.4376 273.903 33.017 272.61 33.9839 268.564Z" stroke="#14D1A4" stroke-width="0.292562"/>
<path d="M34.7718 268.972C34.6704 269.255 34.5091 269.478 34.3378 269.613C34.1645 269.75 34.0007 269.783 33.8752 269.738C33.7497 269.693 33.6446 269.563 33.5977 269.348C33.5514 269.134 33.569 268.859 33.6703 268.577C33.7717 268.294 33.933 268.071 34.1044 267.936C34.2777 267.799 34.4415 267.766 34.567 267.811C34.6925 267.856 34.7976 267.986 34.8444 268.201C34.8908 268.415 34.8732 268.69 34.7718 268.972Z" fill="#14D1A4" stroke="#14D1A4" stroke-width="0.292562"/>
<path d="M98.2844 85.7804C105.059 93.863 101.107 102.09 98.2844 103.668C90.2659 114.908 84.6322 103.935 82.7313 98.0937C81.6944 92.8842 83.3534 89.9164 86.5331 86.8854C89.7129 83.8545 95.001 82.9388 98.2844 85.7804Z" fill="#FF7CA6"/>
<mask id="mask6_1_377" style="mask-type:alpha" maskUnits="userSpaceOnUse" x="82" y="83" width="21" height="26">
<path d="M98.5772 85.6875C105.352 93.8062 101.4 102.07 98.5772 103.655C90.5587 114.945 84.7632 103.876 82.8623 98.0089C81.8254 92.7761 83.6461 89.842 86.8259 86.7974C90.0057 83.7529 95.2938 82.8332 98.5772 85.6875Z" fill="#FF7CA6"/>
</mask>
<g mask="url(#mask6_1_377)">
<path d="M97.0513 86.5991C104.365 94.0594 101.151 101.026 98.3441 102.602C90.3701 113.822 83.5885 102.491 81.6981 96.66C80.667 91.4595 81.299 96.0116 85.9167 94.3235C95.4422 90.8412 96.6124 85.7214 97.0513 86.5991Z" fill="#FEB3CB"/>
<path d="M97.051 87.6233C104.804 98.1555 99.7274 102.282 96.9047 103.86C88.8862 115.1 82.5685 101.217 80.6675 95.3762C82.4229 95.6688 83.8842 98.2232 88.5667 95.815C93.6866 93.182 93.6866 93.9134 97.051 87.6233Z" fill="#FBC6D7"/>
<path d="M96.5005 92.145C96.1221 90.8925 96.2513 88.3917 97.1906 88.909C97.7356 88.909 98.3838 91.6883 98.3838 91.6883C99.389 94.4015 100.038 99.3622 98.9536 100.203C97.305 98.2793 96.4316 97.1624 92.4542 96.9853C90.7218 94.6448 97.1906 94.4294 96.5005 92.145Z" fill="#FEF2F7" fill-opacity="0.3"/>
</g>
<path d="M87.2509 71.7789C86.7828 72.364 84.9104 72.9979 84.0327 73.2417C86.6658 76.7524 92.8388 84.1835 96.4666 85.8218C100.094 87.4602 101.099 93.3309 101.148 96.0615C101.382 96.5296 101.538 99.7673 101.586 101.328C103.108 101.211 103.554 98.8409 103.586 97.6706C103.893 99.4809 103.679 101.972 103.488 103.229C105.595 103.346 108.451 100.547 109.616 99.1334C109.894 102.293 109.496 104.015 109.193 104.546C110.363 103.961 113.289 102.059 115.629 99.1334C118.555 95.4764 114.898 91.8194 113.581 91.2342C112.265 90.6491 111.972 78.3615 111.534 75.2896C111.182 72.8321 107.681 69.6822 105.975 68.4144C92.0782 61.978 87.836 71.0475 87.2509 71.7789Z" fill="url(#paint14_linear_1_377)"/>
<path d="M103.053 90.7021C102.234 89.8829 100.176 91.7748 99.3958 93.0425C98.9125 93.774 98.6644 96.1145 101.59 94.7979C104.516 93.4814 104.077 91.726 103.053 90.7021Z" fill="#FBC6D7" stroke="url(#paint15_linear_1_377)" stroke-width="0.292562"/>
<path fill-rule="evenodd" clip-rule="evenodd" d="M101.461 91.9767C100.966 92.4097 100.515 93.0459 100.251 93.5015C100.211 93.5714 100.121 93.5953 100.051 93.5548C99.9814 93.5143 99.9576 93.4248 99.998 93.3549C100.271 92.884 100.741 92.2183 101.268 91.7566C101.531 91.5261 101.818 91.3376 102.111 91.2562C102.41 91.1731 102.716 91.2026 102.992 91.4095C103.056 91.458 103.069 91.5497 103.021 91.6143C102.973 91.6789 102.881 91.692 102.816 91.6436C102.624 91.4994 102.415 91.4753 102.189 91.5381C101.957 91.6027 101.708 91.7598 101.461 91.9767ZM102.373 91.8522C102.435 91.801 102.527 91.8102 102.578 91.8727C102.695 92.015 102.81 92.1919 102.883 92.3763C102.955 92.558 102.994 92.7667 102.929 92.9595C102.861 93.1617 102.69 93.3104 102.42 93.3906C102.156 93.4693 101.784 93.4867 101.278 93.4272C101.198 93.4177 101.14 93.345 101.15 93.2648C101.159 93.1846 101.232 93.1272 101.312 93.1366C101.801 93.1941 102.127 93.1725 102.337 93.1101C102.542 93.0492 102.622 92.9547 102.652 92.8656C102.685 92.767 102.672 92.6362 102.611 92.4843C102.552 92.335 102.455 92.1839 102.352 92.058C102.301 91.9955 102.31 91.9033 102.373 91.8522Z" fill="#FC719A"/>
<path d="M87.3973 91.7187C78.5034 97.3359 72.3303 89.8171 70.2824 85.1361C75.256 80.1625 74.3823 80.9374 78.6204 78.5534C80.9609 77.2369 82.1312 77.6757 83.0089 72.5559C84.8813 72.907 94.1262 74.165 97.3444 80.7477L98.3684 80.8939C110.656 83.0004 112.216 77.3344 111.387 74.3113C117.122 83.9073 104.268 84.9898 97.3444 84.2584C96.7593 85.5749 96.2912 86.1015 87.3973 91.7187Z" fill="url(#paint16_linear_1_377)"/>
<mask id="mask7_1_377" style="mask-type:alpha" maskUnits="userSpaceOnUse" x="70" y="72" width="43" height="22">
<path d="M87.3973 91.7187C78.5034 97.3359 72.3303 89.8171 70.2824 85.1361C75.256 80.1625 74.3823 80.9374 78.6204 78.5534C80.9609 77.2369 82.1312 77.6757 83.0089 72.5559C84.8813 72.907 94.1262 74.165 97.3444 80.7477L98.3684 80.8939C110.656 83.0004 112.216 77.3344 111.387 74.3113C117.122 83.9073 104.268 84.9898 97.3444 84.2584C96.7593 85.5749 96.2912 86.1015 87.3973 91.7187Z" fill="url(#paint17_linear_1_377)"/>
</mask>
<g mask="url(#mask7_1_377)">
<path d="M78.3278 96.9848L93.2485 89.817C90.4692 87.1839 84.7642 89.8116 80.9609 86.1545C77.1576 82.4975 81.2535 79.8645 77.4502 78.6942L65.6014 84.4046L78.3278 96.9848Z" fill="url(#paint18_linear_1_377)" fill-opacity="0.3"/>
<path d="M76.5339 81.1239C71.3578 83.0744 71.9785 84.05 70.4291 85.8811L69.4052 84.4183L74.2324 79.0059L82.1316 70.6544C85.2035 72.4098 82.2026 76.9217 81.4002 77.5296C79.7917 78.7483 78.9202 78.5821 77.5476 80.3567C77.2842 80.6974 76.9368 80.972 76.5339 81.1239Z" fill="#C1DBF7"/>
</g>
<path d="M82.8635 77.9684C83.0097 79.8213 86.813 82.9876 95.8825 84.3041" stroke="#BAD4F6" stroke-width="0.292562" stroke-linecap="round" stroke-linejoin="round"/>
<path d="M89.7018 77.6065C87.3873 77.05 86.4609 76.5456 85.3134 75.2344C84.8968 76.3797 85.7575 78.7057 86.319 78.7451C86.4375 78.7534 88.6124 77.5463 89.7018 77.6065Z" fill="#B8D2F6"/>
<path d="M86.8107 114.245C81.2838 108.373 67.5147 94.8909 61.6393 89.9073C61.4558 89.7517 61.3444 89.5392 61.3781 89.3009C61.8036 86.29 68.1606 75.2672 75.9859 67.5816C77.3024 64.3634 78.3264 64.5097 79.7892 60.4138C80.9595 57.1371 84.1776 56.708 85.933 57.3419C86.5181 57.5532 86.0881 58.4519 85.0553 58.6584C83.5925 58.951 82.5686 60.4138 82.5686 61.2915C82.5686 61.8946 81.9834 65.6799 86.2256 63.9245C87.3958 62.4617 88.1272 64.9485 83.4462 68.313C79.7892 69.9221 69.4033 85.4103 70.5735 86.1593C73.6537 87.0738 78.0774 94.1943 87.981 96.9841C98.3669 99.9097 108.021 106.054 104.511 114.245C101 122.437 93.8322 121.706 86.8107 114.245Z" fill="#FF7CA6"/>
<mask id="mask8_1_377" style="mask-type:alpha" maskUnits="userSpaceOnUse" x="61" y="57" width="45" height="64">
<path d="M86.8107 114.246C81.2838 108.373 67.5147 94.8914 61.6393 89.9078C61.4558 89.7522 61.3444 89.5397 61.3781 89.3014C61.8036 86.2905 68.1606 75.2677 75.9859 67.5821C77.3024 64.3639 78.3264 64.5101 79.7892 60.4143C80.9595 57.1376 84.1776 56.7085 85.933 57.3424C86.5181 57.5537 86.0881 58.4524 85.0553 58.6589C83.5925 58.9515 82.5686 60.4143 82.5686 61.292C82.5686 61.8951 81.9834 65.6804 86.2256 63.925C87.3958 62.4622 88.1272 64.949 83.4462 68.3135C79.7892 69.9226 69.4033 85.4108 70.5735 86.1598C73.6537 87.0743 78.0774 94.1948 87.981 96.9846C98.3669 99.9102 108.021 106.054 104.511 114.246C101 122.437 93.8322 121.706 86.8107 114.246Z" fill="#FF7CA6"/>
</mask>
<g mask="url(#mask8_1_377)">
<path d="M84.912 115.372C79.3851 109.499 65.616 96.0174 59.7406 91.0338C59.5571 90.8782 59.4457 90.6657 59.4794 90.4275C59.9049 87.4165 66.2619 76.3937 74.0872 68.7081C75.4038 65.4899 76.4277 65.6362 77.8905 61.5403C79.0608 58.2636 84.1782 56.1234 85.9336 56.7573C86.5187 56.9686 86.6738 58.5987 85.641 58.8053C84.1782 59.0978 83.3005 60.2307 83.008 61.2546C82.8423 61.8346 81.6915 65.2485 85.9336 63.4932C87.1039 62.0304 87.689 65.3879 81.8377 68.7081C78.1807 70.3172 67.5046 86.5368 68.6748 87.2858C71.755 88.2003 76.1787 95.3208 86.0823 98.1106C96.4682 101.036 106.123 107.18 102.612 115.372C99.1013 123.563 91.9335 122.832 84.912 115.372Z" fill="#FEB3CB"/>
<mask id="mask9_1_377" style="mask-type:alpha" maskUnits="userSpaceOnUse" x="59" y="56" width="45" height="66">
<path d="M84.912 115.372C79.3851 109.499 65.616 96.0174 59.7406 91.0338C59.5571 90.8782 59.4457 90.6657 59.4794 90.4275C59.9049 87.4165 66.2619 76.3937 74.0872 68.7081C75.4038 65.4899 76.4277 65.6362 77.8905 61.5403C79.0608 58.2636 84.1782 56.1234 85.9336 56.7573C86.5187 56.9686 86.6738 58.5987 85.641 58.8053C84.1782 59.0978 83.3005 60.2307 83.008 61.2546C82.8423 61.8346 81.6915 65.2485 85.9336 63.4932C87.1039 62.0304 87.689 65.3879 81.8377 68.7081C78.1807 70.3172 67.5046 86.5368 68.6748 87.2858C71.755 88.2003 76.1787 95.3208 86.0823 98.1106C96.4682 101.036 106.123 107.18 102.612 115.372C99.1013 123.563 91.9335 122.832 84.912 115.372Z" fill="#FEB3CB"/>
</mask>
<g mask="url(#mask9_1_377)">
<path d="M83.4495 115.483C77.9226 109.61 64.1535 96.1283 58.2781 91.1447C58.0946 90.9891 57.9832 90.7766 58.0169 90.5384C58.4424 87.5274 64.7994 76.5046 72.6247 68.819C73.9412 65.6008 74.9652 65.7471 76.428 61.6512C77.5983 58.3745 86.0802 55.8306 87.8355 56.4645C88.4207 56.6758 89.0058 60.0103 86.2265 59.5364C84.7559 59.2856 84.9123 60.6273 84.6197 61.6512C84.4541 62.2311 82.7157 64.3637 86.9579 62.6083C88.1281 61.1455 88.2744 63.9691 82.4231 67.2893C78.7661 68.8984 66.0421 86.6478 67.2123 87.3967C70.2925 88.3112 74.7162 95.4318 84.6197 98.2215C95.0057 101.147 104.66 107.291 101.15 115.483C97.6388 123.674 90.471 122.943 83.4495 115.483Z" fill="#FBC6D7"/>
<path d="M85.2023 57.7808C88.5668 60.4139 88.456 55.7329 86.2263 55.2941C83.7395 56.2693 76.4778 59.4777 75.6586 59.8288C74.6346 60.2676 59.8957 90.4015 58.7255 91.2792C57.7893 91.9814 65.2106 96.5453 67.9412 100.641L98.3676 123.607C99.099 120.535 97.1096 119.19 94.4181 117.902C91.0536 116.293 88.8594 115.416 87.3966 112.783C85.9337 110.149 79.2048 103.567 76.1329 100.641C73.061 97.7156 63.1139 90.6941 63.1139 88.4999C63.1139 86.9741 67.7949 79.5767 73.061 71.6776C79.7899 65.68 81.8277 55.1398 85.2023 57.7808Z" fill="#FEF2F7"/>
</g>
</g>
<path d="M142.106 142.039C146.609 152.659 144.318 152.811 131.428 158.276C118.537 163.742 104.627 172.47 100.123 161.85C95.6205 151.229 88.1057 126.127 100.996 120.661C113.887 115.196 137.603 131.418 142.106 142.039Z" fill="url(#paint19_linear_1_377)"/>
<ellipse cx="121.65" cy="151.895" rx="26.395" ry="22.8704" transform="rotate(-22.9766 121.65 151.895)" fill="url(#paint20_radial_1_377)" fill-opacity="0.5"/>
<ellipse cx="121.518" cy="152.234" rx="24.5741" ry="20.8328" transform="rotate(-22.9766 121.518 152.234)" fill="#F0DCC5"/>
<ellipse cx="121.411" cy="151.646" rx="23.2587" ry="19.1628" transform="rotate(-22.9766 121.411 151.646)" fill="url(#paint21_radial_1_377)"/>
<mask id="mask10_1_377" style="mask-type:alpha" maskUnits="userSpaceOnUse" x="98" y="131" width="47" height="41">
<ellipse cx="121.411" cy="151.646" rx="23.2587" ry="19.1628" transform="rotate(-22.9766 121.411 151.646)" fill="#D16035"/>
</mask>
<g mask="url(#mask10_1_377)">
<path d="M129.916 119.871C133.924 129.321 127.896 141.065 116.216 146.017C104.536 150.969 91.9048 147.137 87.8976 137.686C83.8905 128.235 89.9181 116.492 101.598 111.54C113.278 106.588 125.909 110.42 129.916 119.871Z" stroke="url(#paint22_radial_1_377)" stroke-width="0.877687"/>
<path d="M153.785 173.409C157.818 182.923 153.228 193.983 143.51 198.104C133.791 202.224 122.65 197.834 118.616 188.321C114.583 178.807 119.173 167.747 128.892 163.627C138.61 159.506 149.751 163.896 153.785 173.409Z" stroke="url(#paint23_linear_1_377)" stroke-width="0.877687"/>
</g>
<circle cx="65.1406" cy="94.1966" r="47.6863" transform="rotate(-150 65.1406 94.1966)" fill="url(#paint24_linear_1_377)"/>
<defs>
<linearGradient id="paint0_linear_1_377" x1="137.718" y1="11.7029" x2="113.435" y2="61.5847" gradientUnits="userSpaceOnUse">
<stop stop-color="#FFFF97" stop-opacity="0.945806"/>
<stop offset="0.456015" stop-color="white"/>
<stop offset="1" stop-color="white" stop-opacity="0.4"/>
</linearGradient>
<linearGradient id="paint1_linear_1_377" x1="135.694" y1="194.396" x2="124.067" y2="271.968" gradientUnits="userSpaceOnUse">
<stop stop-color="#FF78A3"/>
<stop offset="1" stop-color="#FF8EB2"/>
</linearGradient>
<linearGradient id="paint2_linear_1_377" x1="103.639" y1="159.592" x2="91.2002" y2="203.916" gradientUnits="userSpaceOnUse">
<stop stop-color="#647B64"/>
<stop offset="1" stop-color="#647B64"/>
</linearGradient>
<linearGradient id="paint3_linear_1_377" x1="103.639" y1="159.592" x2="91.2002" y2="203.916" gradientUnits="userSpaceOnUse">
<stop stop-color="#647B64"/>
<stop offset="1" stop-color="#647B64"/>
</linearGradient>
<linearGradient id="paint4_linear_1_377" x1="113.581" y1="181.096" x2="106.998" y2="180.218" gradientUnits="userSpaceOnUse">
<stop stop-color="#C1C5FF"/>
<stop offset="1" stop-color="#C1C5FF" stop-opacity="0"/>
</linearGradient>
<linearGradient id="paint5_linear_1_377" x1="107.144" y1="174.074" x2="104.658" y2="180.803" gradientUnits="userSpaceOnUse">
<stop stop-color="#C1C5FF"/>
<stop offset="1" stop-color="#C7CAFF" stop-opacity="0"/>
</linearGradient>
<linearGradient id="paint6_linear_1_377" x1="84.6179" y1="170.856" x2="82.57" y2="161.641" gradientUnits="userSpaceOnUse">
<stop stop-color="#DBF3F8"/>
<stop offset="1" stop-color="#99B5F3"/>
</linearGradient>
<linearGradient id="paint7_linear_1_377" x1="99.433" y1="99.1785" x2="101.335" y2="178.902" gradientUnits="userSpaceOnUse">
<stop stop-color="#647B64"/>
<stop offset="1" stop-color="#647B64"/>
</linearGradient>
<linearGradient id="paint8_linear_1_377" x1="99.4322" y1="99.1782" x2="101.334" y2="178.901" gradientUnits="userSpaceOnUse">
<stop stop-color="#647B64"/>
<stop offset="1" stop-color="#647B64"/>
</linearGradient>
<linearGradient id="paint9_linear_1_377" x1="81.1046" y1="140.988" x2="87.764" y2="169.205" gradientUnits="userSpaceOnUse">
<stop stop-color="#99B5F3"/>
<stop offset="1" stop-color="#DBF3F8"/>
</linearGradient>
<linearGradient id="paint10_linear_1_377" x1="96.3073" y1="170.856" x2="86.3602" y2="156.374" gradientUnits="userSpaceOnUse">
<stop stop-color="#C1C5FF"/>
<stop offset="1" stop-color="#C1C5FF" stop-opacity="0"/>
</linearGradient>
<linearGradient id="paint11_linear_1_377" x1="96.905" y1="163.249" x2="90.4498" y2="153.599" gradientUnits="userSpaceOnUse">
<stop stop-color="#C1C5FF"/>
<stop offset="1" stop-color="#C1C5FF" stop-opacity="0"/>
</linearGradient>
<linearGradient id="paint12_linear_1_377" x1="110.363" y1="105.761" x2="112.728" y2="118.749" gradientUnits="userSpaceOnUse">
<stop stop-color="#C1C5FF"/>
<stop offset="1" stop-color="#C1C5FF" stop-opacity="0"/>
</linearGradient>
<linearGradient id="paint13_linear_1_377" x1="85.7877" y1="126.378" x2="82.2769" y2="107.801" gradientUnits="userSpaceOnUse">
<stop stop-color="#647B64"/>
<stop offset="1" stop-color="#DBF3F8"/>
</linearGradient>
<linearGradient id="paint14_linear_1_377" x1="100.27" y1="80.5557" x2="100.384" y2="104.546" gradientUnits="userSpaceOnUse">
<stop stop-color="#050753"/>
<stop offset="1" stop-color="#008294"/>
</linearGradient>
<linearGradient id="paint15_linear_1_377" x1="103.049" y1="91.8195" x2="99.6849" y2="93.4285" gradientUnits="userSpaceOnUse">
<stop stop-color="#FC719A"/>
<stop offset="1" stop-color="#FC719A" stop-opacity="0"/>
</linearGradient>
<linearGradient id="paint16_linear_1_377" x1="72.0378" y1="92.4501" x2="113.582" y2="79.2848" gradientUnits="userSpaceOnUse">
<stop stop-color="#647B64"/>
<stop offset="0.511301" stop-color="#647B64"/>
<stop offset="0.857583" stop-color="#5EC0DF"/>
<stop offset="1" stop-color="white"/>
</linearGradient>
<linearGradient id="paint17_linear_1_377" x1="93.6874" y1="83.2344" x2="116.215" y2="80.6014" gradientUnits="userSpaceOnUse">
<stop stop-color="#02C3CD"/>
<stop offset="1" stop-color="white"/>
</linearGradient>
<linearGradient id="paint18_linear_1_377" x1="78.7667" y1="92.4501" x2="79.9369" y2="81.479" gradientUnits="userSpaceOnUse">
<stop stop-color="white"/>
<stop offset="1" stop-color="#003BD5" stop-opacity="0"/>
<stop offset="1" stop-color="white"/>
</linearGradient>
<linearGradient id="paint19_linear_1_377" x1="100.855" y1="128.288" x2="125.377" y2="170.854" gradientUnits="userSpaceOnUse">
<stop stop-color="#F5FF7C" stop-opacity="0"/>
<stop offset="0.544444" stop-color="#F0DCC5"/>
<stop offset="1" stop-color="#AD8B64"/>
</linearGradient>
<radialGradient id="paint20_radial_1_377" cx="0" cy="0" r="1" gradientUnits="userSpaceOnUse" gradientTransform="translate(121.966 179.921) rotate(-84.1426) scale(33.7603 38.9813)">
<stop stop-color="#FFEC3E"/>
<stop offset="1" stop-color="#F0DCC5"/>
</radialGradient>
<radialGradient id="paint21_radial_1_377" cx="0" cy="0" r="1" gradientUnits="userSpaceOnUse" gradientTransform="translate(120.163 135.28) rotate(91.0357) scale(44.6301 54.1694)">
<stop stop-color="#F0DCC5"/>
<stop offset="0.546875" stop-color="#F0DCC5"/>
<stop offset="1" stop-color="#CF9B5E"/>
</radialGradient>
<radialGradient id="paint22_radial_1_377" cx="0" cy="0" r="1" gradientUnits="userSpaceOnUse" gradientTransform="translate(114.167 154.181) rotate(-100.46) scale(29.0068 35.2068)">
<stop stop-color="white"/>
<stop offset="1" stop-color="white" stop-opacity="0"/>
</radialGradient>
<linearGradient id="paint23_linear_1_377" x1="124.845" y1="155.643" x2="132.305" y2="169.833" gradientUnits="userSpaceOnUse">
<stop stop-color="white"/>
<stop offset="1" stop-color="white" stop-opacity="0"/>
</linearGradient>
<linearGradient id="paint24_linear_1_377" x1="161.081" y1="-224.847" x2="39.0267" y2="152.669" gradientUnits="userSpaceOnUse">
<stop stop-color="#EF8031" stop-opacity="0"/>
<stop offset="0.692955" stop-color="#EF8031" stop-opacity="0.15"/>
<stop offset="1" stop-color="#EF8031" stop-opacity="0"/>
</linearGradient>
<clipPath id="clip0_1_377">
<rect width="62.7604" height="82.0286" fill="white" transform="translate(98.0567) rotate(26.2336)"/>
</clipPath>
</defs>
</svg>
