<svg width="31" height="31" viewBox="0 0 31 31" fill="none" xmlns="http://www.w3.org/2000/svg">
<g filter="url(#filter0_d_189_4)">
<rect x="2.53766" y="0.686646" width="25.3257" height="25.3257" rx="4.30753" fill="white"/>
</g>
<path d="M11.1522 14.9549V17.8625C11.1522 18.7778 11.9006 19.5316 12.8213 19.5316H18.098C19.0134 19.5316 19.7672 18.7832 19.7672 17.8625V14.9549C19.7672 14.8041 19.6488 14.6857 19.498 14.6857H11.4214C11.2706 14.6857 11.1522 14.8041 11.1522 14.9549ZM13.7798 17.5825C13.6559 17.7117 13.4836 17.7817 13.3059 17.7817C13.2628 17.7817 13.2198 17.7763 13.1767 17.7709C13.1336 17.7602 13.0905 17.7494 13.0475 17.7279C13.0098 17.7117 12.9667 17.6902 12.9344 17.6686C12.8967 17.6417 12.859 17.6148 12.8321 17.5825C12.7029 17.4586 12.6329 17.2863 12.6329 17.1087C12.6329 16.931 12.7029 16.7587 12.8321 16.6348C12.859 16.6025 12.8967 16.5756 12.9344 16.5487C12.9667 16.5271 13.0098 16.5056 13.0475 16.4894C13.0905 16.4679 13.1336 16.4571 13.1767 16.4464C13.3921 16.4033 13.6236 16.4787 13.7798 16.6348C13.909 16.7587 13.979 16.931 13.979 17.1087C13.979 17.2863 13.909 17.4586 13.7798 17.5825ZM18.0873 17.5825C18.0604 17.6148 18.0227 17.6417 17.985 17.6686C17.9527 17.6902 17.9096 17.7117 17.8719 17.7279C17.8288 17.7494 17.7858 17.7602 17.7481 17.7709C17.6996 17.7763 17.6565 17.7817 17.6135 17.7817C17.5704 17.7817 17.5273 17.7763 17.4842 17.7709C17.4411 17.7602 17.3981 17.7494 17.355 17.7279C17.3173 17.7117 17.2742 17.6902 17.2419 17.6686C17.2042 17.6417 17.1665 17.6148 17.1396 17.5825C17.0104 17.4586 16.9404 17.2863 16.9404 17.1087C16.9404 16.931 17.0104 16.7587 17.1396 16.6348C17.1665 16.6025 17.2042 16.5756 17.2419 16.5487C17.2742 16.5271 17.3173 16.5056 17.355 16.4894C17.3981 16.4679 17.4411 16.4571 17.4842 16.4464C17.5704 16.4302 17.6565 16.4302 17.7481 16.4464C17.7858 16.4571 17.8288 16.4679 17.8719 16.4894C17.9096 16.5056 17.9527 16.5271 17.985 16.5487C18.0227 16.5756 18.0604 16.6025 18.0873 16.6348C18.2165 16.7587 18.2865 16.931 18.2865 17.1087C18.2865 17.2863 18.2165 17.4586 18.0873 17.5825Z" fill="#647B64"/>
<path d="M18.098 8.76318H12.8213C11.9006 8.76318 11.1522 9.51162 11.1522 10.4324V11.7246C11.1522 11.8754 11.2706 11.9938 11.4214 11.9938H19.498C19.6488 11.9938 19.7672 11.8754 19.7672 11.7246V10.4324C19.7672 9.51162 19.0188 8.76318 18.098 8.76318ZM16.8058 10.7823H14.1136C13.8928 10.7823 13.7098 10.5993 13.7098 10.3785C13.7098 10.1577 13.8928 9.97468 14.1136 9.97468H16.8058C17.0266 9.97468 17.2096 10.1577 17.2096 10.3785C17.2096 10.5993 17.0266 10.7823 16.8058 10.7823Z" fill="#647B64"/>
<path d="M19.498 14.1471H11.4214C11.2706 14.1471 11.1522 14.0286 11.1522 13.8778V12.801C11.1522 12.6502 11.2706 12.5317 11.4214 12.5317H19.498C19.6488 12.5317 19.7672 12.6502 19.7672 12.801V13.8778C19.7672 14.0286 19.6488 14.1471 19.498 14.1471Z" fill="#647B64"/>
<defs>
<filter id="filter0_d_189_4" x="0.383895" y="0.686646" width="29.6332" height="29.6332" filterUnits="userSpaceOnUse" color-interpolation-filters="sRGB">
<feFlood flood-opacity="0" result="BackgroundImageFix"/>
<feColorMatrix in="SourceAlpha" type="matrix" values="0 0 0 0 0 0 0 0 0 0 0 0 0 0 0 0 0 0 127 0" result="hardAlpha"/>
<feOffset dy="2.15376"/>
<feGaussianBlur stdDeviation="1.07688"/>
<feColorMatrix type="matrix" values="0 0 0 0 0 0 0 0 0 0 0 0 0 0 0 0 0 0 0.04 0"/>
<feBlend mode="normal" in2="BackgroundImageFix" result="effect1_dropShadow_189_4"/>
<feBlend mode="normal" in="SourceGraphic" in2="effect1_dropShadow_189_4" result="shape"/>
</filter>
</defs>
</svg>
