<svg width="56" height="56" viewBox="0 0 56 56" fill="none" xmlns="http://www.w3.org/2000/svg">
<g filter="url(#filter0_d_111_3)">
<rect x="4" width="48" height="48" rx="8" fill="white"/>
</g>
<path d="M37.63 26.66L37.22 28.52C36.51 31.72 34 34 30.38 34H25.62C22 34 19.49 31.72 18.78 28.52L18.37 26.66C18.17 25.75 18.71 24.72 19.58 24.37L21 23.8L26.51 21.59C26.99 21.4 27.5 21.3 28 21.3C28.5 21.3 29.01 21.4 29.49 21.59L35 23.8L36.42 24.37C37.29 24.72 37.83 25.75 37.63 26.66Z" fill="#647B64"/>
<path d="M35 20V21.44C35 21.79 34.64 22.04 34.31 21.9L30.04 20.19C28.73 19.68 27.27 19.68 25.95 20.2L21.69 21.91C21.36 22.05 21 21.8 21 21.45V20C21 18.35 22.35 17 24 17H32C33.65 17 35 18.35 35 20Z" fill="#647B64"/>
<path d="M30.5 17H25.5V15C25.5 14.45 25.95 14 26.5 14H29.5C30.05 14 30.5 14.45 30.5 15V17Z" fill="#647B64"/>
<defs>
<filter id="filter0_d_111_3" x="0" y="0" width="56" height="56" filterUnits="userSpaceOnUse" color-interpolation-filters="sRGB">
<feFlood flood-opacity="0" result="BackgroundImageFix"/>
<feColorMatrix in="SourceAlpha" type="matrix" values="0 0 0 0 0 0 0 0 0 0 0 0 0 0 0 0 0 0 127 0" result="hardAlpha"/>
<feOffset dy="4"/>
<feGaussianBlur stdDeviation="2"/>
<feColorMatrix type="matrix" values="0 0 0 0 0 0 0 0 0 0 0 0 0 0 0 0 0 0 0.04 0"/>
<feBlend mode="normal" in2="BackgroundImageFix" result="effect1_dropShadow_111_3"/>
<feBlend mode="normal" in="SourceGraphic" in2="effect1_dropShadow_111_3" result="shape"/>
</filter>
</defs>
</svg>
