<svg width="26" height="26" viewBox="0 0 26 26" fill="none" xmlns="http://www.w3.org/2000/svg">
<rect x="0.537659" y="0.00012207" width="25.3257" height="25.3257" rx="4.30753" fill="#647B64"/>
<path d="M17.6758 10.9616C17.6129 10.9616 17.5501 10.949 17.4873 10.9239C17.2486 10.8171 17.1418 10.5407 17.2423 10.302C17.3617 10.0319 17.2926 9.63613 17.0727 9.30948C16.8528 8.97654 16.5199 8.7504 16.2184 8.76924C15.942 8.76924 15.7472 8.56194 15.741 8.30439C15.741 8.04055 15.9483 7.83325 16.2058 7.82697C16.8528 7.81441 17.4622 8.18503 17.8579 8.7818C18.26 9.38486 18.3542 10.1073 18.1092 10.6726C18.0338 10.8548 17.8579 10.9616 17.6758 10.9616Z" fill="white"/>
<path d="M19.6296 11.5828C19.5856 11.5828 19.5479 11.5766 19.5039 11.564C19.2527 11.4949 19.1082 11.2373 19.1773 10.9861C19.416 10.1317 19.215 9.11408 18.6433 8.25976C18.0717 7.40543 17.2048 6.83379 16.3191 6.72699C16.0615 6.69559 15.8793 6.46316 15.9107 6.2056C15.9422 5.94805 16.1809 5.7596 16.4321 5.79729C17.5817 5.93549 18.6999 6.66418 19.4223 7.74465C20.1447 8.82512 20.3897 10.1317 20.0819 11.2499C20.0253 11.4446 19.8369 11.5828 19.6296 11.5828Z" fill="white"/>
<path d="M16.6785 12.3993C16.6785 12.5877 16.5215 12.7448 16.333 12.7448H8.07871C7.89026 12.7448 7.73322 12.5877 7.73322 12.3993C7.73322 12.2108 7.89026 12.0538 8.07871 12.0538H8.54357L8.71946 11.2246C8.88279 10.4205 9.22829 9.68555 10.5977 9.68555H13.8203C15.1897 9.68555 15.5289 10.4268 15.6985 11.2246L15.8744 12.0538H16.3393C16.5215 12.0538 16.6785 12.2108 16.6785 12.3993Z" fill="white"/>
<path d="M16.8726 14.9936C16.8035 14.2398 16.6024 13.4294 15.1325 13.4294H9.27785C7.8079 13.4294 7.60688 14.2398 7.53779 14.9936L7.28023 17.789C7.24882 18.1345 7.36189 18.4863 7.6006 18.7501C7.84559 19.014 8.18481 19.1647 8.55544 19.1647H9.41605C10.1573 19.1647 10.3018 18.7376 10.396 18.4612L10.4902 18.1848C10.597 17.8707 10.6222 17.789 11.0368 17.789H13.3862C13.8008 17.789 13.8133 17.833 13.9327 18.1848L14.0269 18.4612C14.1211 18.7439 14.2593 19.1647 15.0069 19.1647H15.8675C16.2318 19.1647 16.5773 19.014 16.8223 18.7501C17.061 18.4863 17.1741 18.1408 17.1427 17.789L16.8726 14.9936ZM10.8295 15.9484H9.45374C9.26528 15.9484 9.10824 15.7914 9.10824 15.6029C9.10824 15.4145 9.26528 15.2574 9.45374 15.2574H10.8295C11.0179 15.2574 11.175 15.4145 11.175 15.6029C11.175 15.7914 11.0179 15.9484 10.8295 15.9484ZM14.9566 15.9484H13.5809C13.3924 15.9484 13.2354 15.7914 13.2354 15.6029C13.2354 15.4145 13.3924 15.2574 13.5809 15.2574H14.9566C15.1451 15.2574 15.3021 15.4145 15.3021 15.6029C15.3021 15.7914 15.1451 15.9484 14.9566 15.9484Z" fill="white"/>
</svg>
