<svg width="56" height="56" viewBox="0 0 56 56" fill="none" xmlns="http://www.w3.org/2000/svg">
<g filter="url(#filter0_d_111_6)">
<rect x="4" width="48" height="48" rx="8" fill="white"/>
</g>
<path d="M28 30.75C27.59 30.75 27.25 30.41 27.25 30V29C27.25 28.59 27.59 28.25 28 28.25C28.41 28.25 28.75 28.59 28.75 29V30C28.75 30.41 28.41 30.75 28 30.75Z" fill="#647B64"/>
<path d="M28 34.75C27.59 34.75 27.25 34.41 27.25 34V33C27.25 32.59 27.59 32.25 28 32.25C28.41 32.25 28.75 32.59 28.75 33V34C28.75 34.41 28.41 34.75 28 34.75Z" fill="#647B64"/>
<path d="M18 34.75C17.94 34.75 17.88 34.74 17.82 34.73C17.42 34.63 17.17 34.22 17.27 33.82L18.27 29.82C18.37 29.42 18.77 29.17 19.18 29.27C19.58 29.37 19.83 29.78 19.73 30.18L18.73 34.18C18.64 34.52 18.34 34.75 18 34.75Z" fill="#647B64"/>
<path d="M37.7526 34.5026C37.4126 34.5026 37.1126 34.2726 37.0226 33.9326L36.0226 29.9326C35.9226 29.5326 36.1626 29.1226 36.5726 29.0226C36.9726 28.9226 37.3826 29.1626 37.4826 29.5726L38.4826 33.5726C38.5826 33.9726 38.3426 34.3826 37.9326 34.4826C37.8726 34.4926 37.8126 34.5026 37.7526 34.5026Z" fill="#647B64"/>
<path d="M35.14 17.3C35.14 17.6 34.89 17.84 34.6 17.84H21.53C21.23 17.84 20.99 17.59 20.99 17.3C20.99 17 21.24 16.76 21.53 16.76H22.27L22.55 15.45C22.81 14.17 23.35 13 25.51 13H30.6C32.76 13 33.31 14.17 33.57 15.44L33.85 16.75H34.59C34.89 16.75 35.14 17 35.14 17.3Z" fill="#647B64"/>
<path d="M35.45 21.4C35.34 20.2 35.02 18.93 32.69 18.93H23.43C21.1 18.93 20.79 20.21 20.67 21.4L20.26 25.82C20.21 26.37 20.39 26.92 20.77 27.34C21.16 27.76 21.7 28 22.28 28H23.64C24.82 28 25.04 27.33 25.19 26.88L25.34 26.44C25.51 25.94 25.55 25.82 26.2 25.82H29.92C30.57 25.82 30.59 25.89 30.78 26.44L30.93 26.88C31.07 27.33 31.3 28 32.47 28H33.83C34.4 28 34.95 27.76 35.34 27.34C35.72 26.93 35.9 26.37 35.85 25.82L35.45 21.4ZM25.88 22.92H23.71C23.41 22.92 23.17 22.67 23.17 22.38C23.17 22.09 23.42 21.84 23.71 21.84H25.89C26.19 21.84 26.43 22.09 26.43 22.38C26.43 22.67 26.18 22.92 25.88 22.92ZM32.41 22.92H30.23C29.93 22.92 29.69 22.67 29.69 22.38C29.69 22.09 29.94 21.84 30.23 21.84H32.41C32.71 21.84 32.95 22.09 32.95 22.38C32.95 22.67 32.71 22.92 32.41 22.92Z" fill="#647B64"/>
<defs>
<filter id="filter0_d_111_6" x="0" y="0" width="56" height="56" filterUnits="userSpaceOnUse" color-interpolation-filters="sRGB">
<feFlood flood-opacity="0" result="BackgroundImageFix"/>
<feColorMatrix in="SourceAlpha" type="matrix" values="0 0 0 0 0 0 0 0 0 0 0 0 0 0 0 0 0 0 127 0" result="hardAlpha"/>
<feOffset dy="4"/>
<feGaussianBlur stdDeviation="2"/>
<feColorMatrix type="matrix" values="0 0 0 0 0 0 0 0 0 0 0 0 0 0 0 0 0 0 0.04 0"/>
<feBlend mode="normal" in2="BackgroundImageFix" result="effect1_dropShadow_111_6"/>
<feBlend mode="normal" in="SourceGraphic" in2="effect1_dropShadow_111_6" result="shape"/>
</filter>
</defs>
</svg>
