<svg width="31" height="31" viewBox="0 0 31 31" fill="none" xmlns="http://www.w3.org/2000/svg">
<g filter="url(#filter0_d_189_5)">
<rect x="3.06842" y="0.686646" width="25.3257" height="25.3257" rx="4.30753" fill="white"/>
</g>
<path d="M15.9909 17.2436C15.7701 17.2436 15.587 17.0606 15.587 16.8398V16.3014C15.587 16.0806 15.7701 15.8975 15.9909 15.8975C16.2116 15.8975 16.3947 16.0806 16.3947 16.3014V16.8398C16.3947 17.0606 16.2116 17.2436 15.9909 17.2436Z" fill="#647B64"/>
<path d="M15.9909 19.3971C15.7701 19.3971 15.587 19.214 15.587 18.9932V18.4548C15.587 18.234 15.7701 18.051 15.9909 18.051C16.2116 18.051 16.3947 18.234 16.3947 18.4548V18.9932C16.3947 19.214 16.2116 19.3971 15.9909 19.3971Z" fill="#647B64"/>
<path d="M10.6064 19.3975C10.574 19.3975 10.5417 19.3921 10.5094 19.3867C10.2941 19.3329 10.1594 19.1121 10.2133 18.8967L10.7517 16.743C10.8056 16.5276 11.021 16.393 11.2417 16.4468C11.4571 16.5007 11.5917 16.7214 11.5379 16.9368L10.9994 19.0906C10.951 19.2736 10.7894 19.3975 10.6064 19.3975Z" fill="#647B64"/>
<path d="M21.2426 19.2644C21.0596 19.2644 20.898 19.1405 20.8496 18.9574L20.3111 16.8037C20.2573 16.5883 20.3865 16.3675 20.6073 16.3137C20.8227 16.2599 21.0434 16.3891 21.0973 16.6098L21.6357 18.7636C21.6895 18.979 21.5603 19.1997 21.3396 19.2536C21.3073 19.259 21.2749 19.2644 21.2426 19.2644Z" fill="#647B64"/>
<path d="M19.8356 10.0015C19.8356 10.163 19.701 10.2922 19.5449 10.2922H12.5074C12.3459 10.2922 12.2167 10.1576 12.2167 10.0015C12.2167 9.83992 12.3513 9.7107 12.5074 9.7107H12.9059L13.0566 9.00534C13.1966 8.31613 13.4874 7.68616 14.6504 7.68616H17.3911C18.5541 7.68616 18.8503 8.31613 18.9903 8.99995L19.141 9.70531H19.5395C19.701 9.70531 19.8356 9.83992 19.8356 10.0015Z" fill="#647B64"/>
<path d="M20.0017 12.2091C19.9425 11.563 19.7702 10.8792 18.5157 10.8792H13.5297C12.2751 10.8792 12.1082 11.5684 12.0436 12.2091L11.8228 14.589C11.7959 14.8851 11.8928 15.1813 12.0974 15.4074C12.3074 15.6336 12.5982 15.7628 12.9105 15.7628H13.6428C14.2781 15.7628 14.3966 15.4021 14.4773 15.1598L14.5581 14.9228C14.6496 14.6536 14.6712 14.589 15.0212 14.589H17.0242C17.3742 14.589 17.3849 14.6267 17.4872 14.9228L17.568 15.1598C17.6434 15.4021 17.7672 15.7628 18.3972 15.7628H19.1295C19.4364 15.7628 19.7325 15.6336 19.9425 15.4074C20.1471 15.1867 20.244 14.8851 20.2171 14.589L20.0017 12.2091ZM14.8489 13.0275H13.6805C13.5189 13.0275 13.3897 12.8929 13.3897 12.7368C13.3897 12.5806 13.5243 12.446 13.6805 12.446H14.8543C15.0158 12.446 15.145 12.5806 15.145 12.7368C15.145 12.8929 15.0104 13.0275 14.8489 13.0275ZM18.3649 13.0275H17.1911C17.0296 13.0275 16.9003 12.8929 16.9003 12.7368C16.9003 12.5806 17.0349 12.446 17.1911 12.446H18.3649C18.5264 12.446 18.6556 12.5806 18.6556 12.7368C18.6556 12.8929 18.5264 13.0275 18.3649 13.0275Z" fill="#647B64"/>
<defs>
<filter id="filter0_d_189_5" x="0.914657" y="0.686646" width="29.6332" height="29.6332" filterUnits="userSpaceOnUse" color-interpolation-filters="sRGB">
<feFlood flood-opacity="0" result="BackgroundImageFix"/>
<feColorMatrix in="SourceAlpha" type="matrix" values="0 0 0 0 0 0 0 0 0 0 0 0 0 0 0 0 0 0 127 0" result="hardAlpha"/>
<feOffset dy="2.15376"/>
<feGaussianBlur stdDeviation="1.07688"/>
<feColorMatrix type="matrix" values="0 0 0 0 0 0 0 0 0 0 0 0 0 0 0 0 0 0 0.04 0"/>
<feBlend mode="normal" in2="BackgroundImageFix" result="effect1_dropShadow_189_5"/>
<feBlend mode="normal" in="SourceGraphic" in2="effect1_dropShadow_189_5" result="shape"/>
</filter>
</defs>
</svg>
