<svg width="56" height="56" viewBox="0 0 56 56" fill="none" xmlns="http://www.w3.org/2000/svg">
<g filter="url(#filter0_d_111_5)">
<rect x="4" width="48" height="48" rx="8" fill="white"/>
</g>
<path d="M20 26.5V31.9C20 33.6 21.39 35 23.1 35H32.9C34.6 35 36 33.61 36 31.9V26.5C36 26.22 35.78 26 35.5 26H20.5C20.22 26 20 26.22 20 26.5ZM24.88 31.38C24.65 31.62 24.33 31.75 24 31.75C23.92 31.75 23.84 31.74 23.76 31.73C23.68 31.71 23.6 31.69 23.52 31.65C23.45 31.62 23.37 31.58 23.31 31.54C23.24 31.49 23.17 31.44 23.12 31.38C22.88 31.15 22.75 30.83 22.75 30.5C22.75 30.17 22.88 29.85 23.12 29.62C23.17 29.56 23.24 29.51 23.31 29.46C23.37 29.42 23.45 29.38 23.52 29.35C23.6 29.31 23.68 29.29 23.76 29.27C24.16 29.19 24.59 29.33 24.88 29.62C25.12 29.85 25.25 30.17 25.25 30.5C25.25 30.83 25.12 31.15 24.88 31.38ZM32.88 31.38C32.83 31.44 32.76 31.49 32.69 31.54C32.63 31.58 32.55 31.62 32.48 31.65C32.4 31.69 32.32 31.71 32.25 31.73C32.16 31.74 32.08 31.75 32 31.75C31.92 31.75 31.84 31.74 31.76 31.73C31.68 31.71 31.6 31.69 31.52 31.65C31.45 31.62 31.37 31.58 31.31 31.54C31.24 31.49 31.17 31.44 31.12 31.38C30.88 31.15 30.75 30.83 30.75 30.5C30.75 30.17 30.88 29.85 31.12 29.62C31.17 29.56 31.24 29.51 31.31 29.46C31.37 29.42 31.45 29.38 31.52 29.35C31.6 29.31 31.68 29.29 31.76 29.27C31.92 29.24 32.08 29.24 32.25 29.27C32.32 29.29 32.4 29.31 32.48 29.35C32.55 29.38 32.63 29.42 32.69 29.46C32.76 29.51 32.83 29.56 32.88 29.62C33.12 29.85 33.25 30.17 33.25 30.5C33.25 30.83 33.12 31.15 32.88 31.38Z" fill="#647B64"/>
<path d="M32.9 15H23.1C21.39 15 20 16.39 20 18.1V20.5C20 20.78 20.22 21 20.5 21H35.5C35.78 21 36 20.78 36 20.5V18.1C36 16.39 34.61 15 32.9 15ZM30.5 18.75H25.5C25.09 18.75 24.75 18.41 24.75 18C24.75 17.59 25.09 17.25 25.5 17.25H30.5C30.91 17.25 31.25 17.59 31.25 18C31.25 18.41 30.91 18.75 30.5 18.75Z" fill="#647B64"/>
<path d="M35.5 25H20.5C20.22 25 20 24.78 20 24.5V22.5C20 22.22 20.22 22 20.5 22H35.5C35.78 22 36 22.22 36 22.5V24.5C36 24.78 35.78 25 35.5 25Z" fill="#647B64"/>
<defs>
<filter id="filter0_d_111_5" x="0" y="0" width="56" height="56" filterUnits="userSpaceOnUse" color-interpolation-filters="sRGB">
<feFlood flood-opacity="0" result="BackgroundImageFix"/>
<feColorMatrix in="SourceAlpha" type="matrix" values="0 0 0 0 0 0 0 0 0 0 0 0 0 0 0 0 0 0 127 0" result="hardAlpha"/>
<feOffset dy="4"/>
<feGaussianBlur stdDeviation="2"/>
<feColorMatrix type="matrix" values="0 0 0 0 0 0 0 0 0 0 0 0 0 0 0 0 0 0 0.04 0"/>
<feBlend mode="normal" in2="BackgroundImageFix" result="effect1_dropShadow_111_5"/>
<feBlend mode="normal" in="SourceGraphic" in2="effect1_dropShadow_111_5" result="shape"/>
</filter>
</defs>
</svg>
