<svg width="31" height="30" viewBox="0 0 31 30" fill="none" xmlns="http://www.w3.org/2000/svg">
<g filter="url(#filter0_d_189_3)">
<rect x="3.06842" y="0.00012207" width="25.3257" height="25.3257" rx="4.30753" fill="white"/>
</g>
<path d="M21.176 13.8941L20.9553 14.8956C20.573 16.6186 19.2215 17.8463 17.2723 17.8463H14.7094C12.7602 17.8463 11.4087 16.6186 11.0264 14.8956L10.8057 13.8941C10.698 13.4041 10.9887 12.8495 11.4572 12.6611L12.2218 12.3542L15.1886 11.1642C15.447 11.0619 15.7216 11.0081 15.9909 11.0081C16.2601 11.0081 16.5347 11.0619 16.7931 11.1642L19.7599 12.3542L20.5245 12.6611C20.993 12.8495 21.2837 13.4041 21.176 13.8941Z" fill="#647B64"/>
<path d="M19.7606 10.3079V11.0833C19.7606 11.2718 19.5668 11.4064 19.3891 11.331L17.09 10.4103C16.3846 10.1356 15.5985 10.1356 14.8878 10.4156L12.594 11.3364C12.4163 11.4118 12.2225 11.2771 12.2225 11.0887V10.3079C12.2225 9.41952 12.9494 8.69263 13.8378 8.69263H18.1453C19.0337 8.69263 19.7606 9.41952 19.7606 10.3079Z" fill="#647B64"/>
<path d="M17.3378 8.69296H14.6456V7.61608C14.6456 7.31994 14.8879 7.07764 15.1841 7.07764H16.7994C17.0955 7.07764 17.3378 7.31994 17.3378 7.61608V8.69296Z" fill="#647B64"/>
<defs>
<filter id="filter0_d_189_3" x="0.914657" y="0.00012207" width="29.6332" height="29.6332" filterUnits="userSpaceOnUse" color-interpolation-filters="sRGB">
<feFlood flood-opacity="0" result="BackgroundImageFix"/>
<feColorMatrix in="SourceAlpha" type="matrix" values="0 0 0 0 0 0 0 0 0 0 0 0 0 0 0 0 0 0 127 0" result="hardAlpha"/>
<feOffset dy="2.15376"/>
<feGaussianBlur stdDeviation="1.07688"/>
<feColorMatrix type="matrix" values="0 0 0 0 0 0 0 0 0 0 0 0 0 0 0 0 0 0 0.04 0"/>
<feBlend mode="normal" in2="BackgroundImageFix" result="effect1_dropShadow_189_3"/>
<feBlend mode="normal" in="SourceGraphic" in2="effect1_dropShadow_189_3" result="shape"/>
</filter>
</defs>
</svg>
